<svg width="32" height="32" viewBox="0 0 32 32" fill="none" xmlns="http://www.w3.org/2000/svg">
<g clip-path="url(#clip0_92_222)">
<path d="M27.0892 5.98914C25.0492 5.06914 22.8626 4.38914 20.5759 4.00247C20.5555 3.99856 20.5345 4.00108 20.5156 4.00968C20.4967 4.01828 20.481 4.03253 20.4706 4.05047C20.1906 4.54247 19.8786 5.1838 19.6599 5.69047C17.2347 5.32812 14.7691 5.32812 12.3439 5.69047C12.1004 5.12895 11.8257 4.58143 11.5212 4.05047C11.5109 4.03231 11.4953 4.01774 11.4765 4.00868C11.4577 3.99963 11.4365 3.99653 11.4159 3.9998C9.13058 4.38647 6.94391 5.06647 4.90258 5.9878C4.88501 5.99517 4.87012 6.00773 4.85991 6.0238C0.710575 12.1238 -0.426758 18.0731 0.131908 23.9478C0.133463 23.9622 0.137929 23.9761 0.145035 23.9887C0.152141 24.0013 0.161738 24.0124 0.173242 24.0211C2.5951 25.7844 5.29636 27.1276 8.16391 27.9945C8.1839 28.0006 8.20528 28.0006 8.22526 27.9944C8.24524 27.9882 8.26289 27.9762 8.27591 27.9598C8.89191 27.1331 9.44124 26.2598 9.91058 25.3425C9.93858 25.2891 9.91191 25.2251 9.85591 25.2038C8.99458 24.8794 8.16002 24.488 7.35991 24.0331C7.34553 24.0249 7.33342 24.0133 7.32465 23.9992C7.31589 23.9852 7.31074 23.9692 7.30969 23.9527C7.30863 23.9362 7.31169 23.9196 7.31859 23.9046C7.3255 23.8895 7.33603 23.8764 7.34924 23.8665C7.51724 23.7425 7.68524 23.6131 7.84524 23.4838C7.85964 23.4722 7.87699 23.4648 7.89535 23.4624C7.91372 23.4601 7.93237 23.4628 7.94924 23.4705C13.1852 25.8225 18.8559 25.8225 24.0306 23.4705C24.0475 23.4624 24.0663 23.4592 24.085 23.4614C24.1036 23.4635 24.1212 23.4708 24.1359 23.4825C24.2959 23.6131 24.4626 23.7425 24.6319 23.8665C24.6453 23.8762 24.656 23.8892 24.6631 23.9041C24.6702 23.919 24.6735 23.9354 24.6727 23.952C24.6719 23.9685 24.6671 23.9845 24.6585 23.9987C24.65 24.0129 24.6381 24.0247 24.6239 24.0331C23.8266 24.4918 22.9972 24.8798 22.1266 25.2025C22.1132 25.2073 22.101 25.215 22.0908 25.2249C22.0807 25.2348 22.0727 25.2468 22.0675 25.2601C22.0624 25.2733 22.0601 25.2875 22.0608 25.3018C22.0616 25.316 22.0654 25.3298 22.0719 25.3425C22.5519 26.2585 23.1012 27.1305 23.7052 27.9585C23.7178 27.9755 23.7353 27.9882 23.7553 27.9948C23.7754 28.0015 23.797 28.0019 23.8172 27.9958C26.6897 27.1313 29.3954 25.7875 31.8199 24.0211C31.8317 24.0129 31.8417 24.0022 31.849 23.9897C31.8564 23.9773 31.861 23.9635 31.8626 23.9491C32.5292 17.1571 30.7452 11.2558 27.1306 6.02647C27.1217 6.00947 27.107 5.99623 27.0892 5.98914ZM10.6932 20.3705C9.11724 20.3705 7.81724 18.9451 7.81724 17.1971C7.81724 15.4478 9.09191 14.0238 10.6932 14.0238C12.3066 14.0238 13.5946 15.4598 13.5692 17.1971C13.5692 18.9465 12.2946 20.3705 10.6932 20.3705ZM21.3266 20.3705C19.7492 20.3705 18.4506 18.9451 18.4506 17.1971C18.4506 15.4478 19.7239 14.0238 21.3266 14.0238C22.9399 14.0238 24.2279 15.4598 24.2026 17.1971C24.2026 18.9465 22.9412 20.3705 21.3266 20.3705Z" fill="white"/>
</g>
<defs>
<clipPath id="clip0_92_222">
<rect width="32" height="32" fill="white"/>
</clipPath>
</defs>
</svg>
