<?xml version="1.0" encoding="utf-8"?>
<!-- Generator: Adobe Illustrator 25.4.1, SVG Export Plug-In . SVG Version: 6.00 Build 0)  -->
<svg version="1.1" id="Camada_1" xmlns="http://www.w3.org/2000/svg" xmlns:xlink="http://www.w3.org/1999/xlink" x="0px" y="0px"
	 viewBox="0 0 24 24" style="enable-background:new 0 0 24 24;" xml:space="preserve">
<style type="text/css">
	.st0{fill:#FFFFFF;}
</style>
<path class="st0" d="M15.4,16.5l-3-3c-0.1-0.1-0.2-0.1-0.3-0.1s-0.2,0-0.3,0.1l-3,3c-0.3,0.3-0.9,0.9-2.6,0.9l3.7,3.7
	c0.6,0.6,1.3,0.9,2.1,0.9s1.6-0.3,2.1-0.9l3.7-3.7C16.9,17.4,16.2,17.2,15.4,16.5z M8.8,7.5l3,3c0.1,0.1,0.2,0.1,0.3,0.1
	s0.2-0.1,0.3-0.1l3-3c0.7-0.7,1.5-0.9,2.4-0.9l-3.7-3.7C13.6,2.3,12.8,2,12,2c-0.8,0-1.6,0.3-2.1,0.9L6.2,6.6C8,6.6,8.5,7.2,8.8,7.5
	z"/>
<path class="st0" d="M21.1,9.9l-2.2-2.3h-1.3c-0.5,0-1.1,0.2-1.5,0.6l-3,3c-0.3,0.3-0.6,0.4-1,0.4c-0.4,0-0.7-0.2-1-0.4l-3-3
	C7.7,7.8,7.2,7.6,6.6,7.6H5.2L2.9,9.9C2.3,10.4,2,11.2,2,12s0.3,1.6,0.9,2.1l2.3,2.3h1.5c0.5,0,1.1-0.2,1.4-0.6l3-3
	c0.3-0.3,0.7-0.4,1-0.4s0.7,0.1,1,0.4l3,3c0.4,0.4,0.9,0.6,1.5,0.6h1.3l2.2-2.3c0.6-0.6,0.9-1.3,0.9-2.1C22,11.2,21.7,10.4,21.1,9.9
	z"/>
</svg>
