<svg width="24" height="24" viewBox="0 0 24 24" fill="none" xmlns="http://www.w3.org/2000/svg">
<path d="M15.45 16.5201L12.44 13.5101C12.33 13.4001 12.2 13.3801 12.13 13.3801C12.06 13.3801 11.93 13.4001 11.82 13.5101L8.8 16.5301C8.46 16.8701 7.93 17.4201 6.16 17.4201L9.87 21.1201C10.4325 21.6819 11.195 21.9975 11.99 21.9975C12.785 21.9975 13.5475 21.6819 14.11 21.1201L17.83 17.4101C16.92 17.4101 16.16 17.2301 15.45 16.5201ZM8.8 7.47009L11.82 10.4901C11.9 10.5701 12.02 10.6201 12.13 10.6201C12.24 10.6201 12.36 10.5701 12.44 10.4901L15.43 7.50009C16.14 6.76009 16.95 6.59009 17.86 6.59009L14.14 2.88009C13.5775 2.31829 12.815 2.00273 12.02 2.00273C11.225 2.00273 10.4625 2.31829 9.9 2.88009L6.19 6.58009C7.95 6.58009 8.49 7.16009 8.8 7.47009Z" fill="#2E384C"/>
<path d="M21.11 9.8501L18.86 7.5901H17.6C17.06 7.5901 16.52 7.8101 16.15 8.2001L13.15 11.2001C12.87 11.4801 12.5 11.6201 12.13 11.6201C11.749 11.6147 11.3843 11.4646 11.11 11.2001L8.08998 8.1701C7.70998 7.7901 7.18998 7.5701 6.63998 7.5701H5.16998L2.87998 9.8701C2.31818 10.4326 2.00262 11.1951 2.00262 11.9901C2.00262 12.7851 2.31818 13.5476 2.87998 14.1101L5.16998 16.4101H6.64998C7.18998 16.4101 7.70999 16.1901 8.09999 15.8101L11.12 12.7901C11.4 12.5101 11.77 12.3701 12.14 12.3701C12.51 12.3701 12.88 12.5101 13.16 12.7901L16.17 15.8001C16.55 16.1801 17.07 16.4001 17.62 16.4001H18.88L21.13 14.1401C21.6941 13.5675 22.0087 12.7948 22.005 11.991C22.0012 11.1871 21.6795 10.4174 21.11 9.8501Z" fill="#2E384C"/>
</svg>
