<svg id="svg" version="1.1" xmlns="http://www.w3.org/2000/svg" xmlns:xlink="http://www.w3.org/1999/xlink" width="400" height="400" viewBox="0, 0, 400,400"><g id="svgg"><path id="path0" d="M195.583 33.501 C 190.574 34.018,184.617 35.501,180.917 37.152 C 179.514 37.777,175.906 39.598,175.861 39.703 C 175.831 39.775,175.728 39.833,175.633 39.833 C 175.459 39.833,173.489 40.975,173.333 41.165 C 173.287 41.222,172.950 41.449,172.583 41.670 C 172.217 41.892,171.842 42.132,171.750 42.204 C 171.658 42.276,170.933 42.817,170.138 43.407 C 167.210 45.580,169.173 43.659,133.581 79.173 L 103.079 109.609 107.164 109.817 C 113.671 110.149,119.530 110.780,121.917 111.406 C 122.100 111.454,122.925 111.646,123.750 111.831 C 128.669 112.938,137.357 116.365,137.806 117.375 C 137.836 117.444,137.926 117.500,138.006 117.500 C 138.405 117.500,141.483 119.799,143.474 121.583 C 143.882 121.950,156.154 134.185,170.743 148.773 C 187.749 165.777,197.594 175.503,198.176 175.873 C 200.683 177.468,204.211 177.416,206.477 175.750 C 206.601 175.658,218.526 163.777,232.977 149.348 C 247.427 134.918,259.815 122.618,260.506 122.014 C 262.006 120.703,263.106 119.807,263.478 119.594 C 263.628 119.508,263.835 119.358,263.938 119.261 C 264.041 119.163,264.294 118.971,264.499 118.833 C 264.704 118.696,265.032 118.462,265.228 118.313 C 266.652 117.230,271.982 114.424,273.917 113.738 C 274.375 113.576,274.825 113.389,274.917 113.324 C 275.008 113.259,275.343 113.149,275.661 113.081 C 275.979 113.013,276.354 112.896,276.495 112.821 C 276.635 112.746,277.313 112.527,278.000 112.335 C 278.688 112.143,279.512 111.912,279.833 111.821 C 283.355 110.829,290.245 110.015,295.208 110.005 C 296.652 110.002,297.833 109.942,297.833 109.872 C 297.833 109.801,295.078 107.008,291.710 103.664 C 288.343 100.319,274.035 86.071,259.916 72.000 C 245.796 57.929,233.870 46.084,233.414 45.678 C 230.009 42.649,224.110 38.953,219.905 37.215 C 217.103 36.056,213.182 34.837,210.667 34.342 C 206.367 33.497,199.393 33.108,195.583 33.501 M78.833 133.337 C 74.846 137.351,66.331 145.912,59.911 152.360 C 45.703 166.629,45.420 166.926,43.407 169.638 C 42.817 170.433,42.276 171.158,42.204 171.250 C 42.132 171.342,41.892 171.717,41.670 172.083 C 41.449 172.450,41.222 172.787,41.165 172.833 C 40.975 172.989,39.833 174.959,39.833 175.133 C 39.833 175.228,39.772 175.331,39.697 175.361 C 39.588 175.405,37.847 178.865,37.152 180.417 C 36.377 182.149,35.068 186.266,34.582 188.500 C 34.433 189.188,34.241 190.050,34.155 190.417 C 33.187 194.583,33.073 202.426,33.905 207.667 C 34.382 210.668,35.488 215.058,36.153 216.583 C 36.233 216.767,36.429 217.292,36.589 217.750 C 37.967 221.691,42.615 229.704,44.663 231.667 C 44.711 231.713,45.145 232.214,45.628 232.782 C 46.111 233.350,48.436 235.752,50.795 238.121 C 53.153 240.489,62.081 249.463,70.634 258.062 L 86.184 273.696 100.134 273.619 C 115.885 273.532,115.727 273.543,120.583 272.168 C 122.901 271.511,126.052 270.123,128.500 268.680 C 132.218 266.488,132.009 266.686,160.083 238.649 C 187.344 211.425,187.129 211.637,188.250 210.872 C 188.617 210.622,188.954 210.376,189.000 210.325 C 189.761 209.484,193.510 207.863,197.083 206.831 C 200.131 205.950,207.646 206.272,209.417 207.359 C 209.508 207.415,209.843 207.517,210.161 207.585 C 210.479 207.653,210.854 207.771,210.995 207.847 C 211.135 207.923,211.775 208.220,212.417 208.506 C 213.931 209.182,215.283 209.997,216.833 211.167 C 217.554 211.711,229.136 223.155,244.172 238.180 C 258.520 252.519,270.558 264.514,270.922 264.836 C 273.106 266.771,275.921 268.632,278.667 269.954 C 281.430 271.285,283.595 272.014,287.250 272.844 C 289.566 273.370,292.825 273.500,303.680 273.500 L 314.650 273.500 326.033 262.099 C 345.598 242.503,353.906 234.113,354.590 233.260 C 354.953 232.808,355.364 232.319,355.502 232.175 C 355.641 232.030,355.939 231.651,356.163 231.331 C 356.388 231.011,356.650 230.659,356.745 230.547 C 358.700 228.247,361.632 223.013,363.214 219.000 C 365.878 212.240,366.952 206.254,366.789 199.083 C 366.676 194.147,366.325 191.645,365.001 186.333 C 364.770 185.408,363.886 182.769,363.568 182.058 C 363.439 181.769,363.333 181.450,363.333 181.348 C 363.333 181.246,363.265 181.032,363.182 180.873 C 363.098 180.714,362.414 179.308,361.662 177.750 C 360.910 176.192,360.241 174.879,360.177 174.833 C 360.112 174.787,360.011 174.619,359.951 174.458 C 359.842 174.161,356.943 169.773,356.603 169.389 C 356.396 169.155,356.257 168.981,355.692 168.250 C 354.549 166.773,352.255 164.418,337.667 149.752 C 328.912 140.950,320.138 132.117,318.168 130.121 L 314.586 126.492 301.835 126.550 C 288.542 126.609,288.920 126.592,285.470 127.321 C 282.367 127.977,275.344 131.026,274.333 132.157 C 274.287 132.208,273.875 132.508,273.417 132.822 C 271.770 133.953,270.273 135.421,244.434 161.242 C 230.027 175.638,218.017 187.605,217.745 187.834 C 217.157 188.331,216.512 188.823,215.999 189.167 C 215.794 189.304,215.538 189.492,215.430 189.583 C 214.953 189.990,211.037 192.000,210.722 192.000 C 210.597 192.000,210.365 192.071,210.206 192.158 C 209.930 192.309,208.549 192.711,206.750 193.165 C 205.613 193.452,200.871 193.571,199.333 193.352 C 197.675 193.115,196.326 192.853,195.917 192.688 C 195.733 192.614,195.058 192.381,194.417 192.171 C 193.157 191.758,190.118 190.346,190.028 190.131 C 189.997 190.059,189.885 189.997,189.778 189.994 C 189.517 189.986,187.583 188.605,186.475 187.637 C 185.985 187.208,178.608 179.864,170.083 171.317 C 132.827 133.963,133.344 134.475,131.500 133.121 C 130.537 132.414,129.675 131.776,129.583 131.703 C 129.407 131.563,127.425 130.397,127.000 130.184 C 126.862 130.115,126.525 129.936,126.250 129.787 C 124.265 128.707,120.878 127.493,118.167 126.890 C 114.651 126.108,112.595 126.015,99.000 126.026 L 86.083 126.037 78.833 133.337 M199.917 223.263 C 199.016 223.586,198.188 224.014,197.681 224.417 C 197.450 224.600,185.326 236.675,170.739 251.250 C 156.152 265.825,143.882 278.050,143.474 278.417 C 141.333 280.336,137.695 283.000,137.214 283.000 C 137.111 283.000,137.003 283.062,136.972 283.138 C 136.922 283.262,133.281 285.087,131.833 285.713 C 131.053 286.051,127.387 287.277,126.476 287.506 C 122.689 288.455,120.055 288.974,117.167 289.340 C 116.479 289.427,115.354 289.575,114.667 289.668 C 113.485 289.828,110.177 290.034,104.909 290.275 L 102.568 290.382 133.492 321.242 C 168.567 356.245,166.673 354.393,169.638 356.593 C 170.433 357.183,171.158 357.724,171.250 357.796 C 171.342 357.868,171.717 358.108,172.083 358.330 C 172.450 358.551,172.787 358.778,172.833 358.835 C 172.989 359.025,174.959 360.167,175.133 360.167 C 175.228 360.167,175.331 360.229,175.361 360.305 C 175.406 360.416,179.003 362.227,180.417 362.850 C 182.229 363.649,186.274 364.934,188.500 365.418 C 189.188 365.567,190.050 365.759,190.417 365.845 C 198.046 367.618,209.315 366.622,217.750 363.429 C 221.954 361.838,226.429 359.351,230.083 356.577 C 232.987 354.372,231.500 355.820,258.914 328.502 C 272.849 314.616,287.194 300.330,290.792 296.755 C 294.390 293.180,297.333 290.198,297.333 290.128 C 297.333 290.058,296.190 289.998,294.792 289.995 C 289.356 289.984,283.690 289.251,279.083 287.963 C 278.442 287.784,277.617 287.558,277.250 287.461 C 276.883 287.364,276.508 287.229,276.417 287.162 C 276.325 287.094,275.987 286.984,275.667 286.917 C 275.346 286.850,275.008 286.741,274.917 286.676 C 274.825 286.611,274.375 286.422,273.917 286.256 C 272.818 285.860,268.599 283.807,268.528 283.635 C 268.497 283.561,268.407 283.500,268.328 283.500 C 268.209 283.500,266.499 282.454,265.268 281.628 C 264.734 281.270,261.422 278.792,261.333 278.684 C 261.287 278.629,260.666 278.067,259.951 277.437 C 259.237 276.807,246.964 264.619,232.678 250.354 C 218.392 236.088,206.597 224.333,206.466 224.231 C 206.212 224.031,205.473 223.678,204.438 223.260 C 203.606 222.925,200.854 222.926,199.917 223.263 " stroke="none" fill="#04bcac" fill-rule="evenodd"></path><path id="path1" d="" stroke="none" fill="#08bcac" fill-rule="evenodd"></path><path id="path2" d="" stroke="none" fill="#08bcac" fill-rule="evenodd"></path><path id="path3" d="" stroke="none" fill="#08bcac" fill-rule="evenodd"></path><path id="path4" d="" stroke="none" fill="#08bcac" fill-rule="evenodd"></path></g></svg>