<svg width="185" height="185" viewBox="0 0 185 185" fill="none" xmlns="http://www.w3.org/2000/svg">
<circle opacity="0.15" cx="92.5" cy="92.5" r="92.5" fill="#048401"/>
<path fill-rule="evenodd" clip-rule="evenodd" d="M92.9993 18.667C52.4993 18.667 19.666 51.5003 19.666 92.0003C19.666 132.5 52.4993 165.334 92.9993 165.334C133.499 165.334 166.333 132.5 166.333 92.0003C166.333 51.5003 133.499 18.667 92.9993 18.667ZM124.786 79.6003C125.371 78.9313 125.817 78.1519 126.097 77.3081C126.376 76.4643 126.484 75.5731 126.414 74.6869C126.345 73.8007 126.098 72.9374 125.69 72.1478C125.281 71.3583 124.719 70.6584 124.036 70.0893C123.353 69.5202 122.564 69.0934 121.713 68.8341C120.863 68.5747 119.969 68.4881 119.085 68.5792C118.201 68.6703 117.344 68.9373 116.564 69.3645C115.785 69.7918 115.099 70.3706 114.546 71.067L85.8793 105.46L71.046 90.6203C69.7887 89.4059 68.1047 88.734 66.3567 88.7492C64.6087 88.7644 62.9366 89.4655 61.7006 90.7015C60.4645 91.9376 59.7634 93.6097 59.7482 95.3576C59.733 97.1056 60.405 98.7896 61.6193 100.047L81.6193 120.047C82.2744 120.702 83.0586 121.213 83.9221 121.547C84.7856 121.882 85.7093 122.033 86.6345 121.991C87.5596 121.949 88.4659 121.715 89.2954 121.303C90.125 120.892 90.8597 120.312 91.4527 119.6L124.786 79.6003Z" fill="#048401"/>
</svg>
