<svg xmlns="http://www.w3.org/2000/svg" viewBox="0 0 607.56 636.96"><defs><style>.cls-1{fill:#5bad81;}.cls-2{fill:#fdfdfd;}.cls-3{font-size:500px;font-family:CyclicSans-Bold, CyclicSans;font-weight:700;}.cls-3,.cls-4{fill:#fff;}</style></defs><g id="Retângulo_1_Imagem" data-name="Retângulo 1 Imagem"><path class="cls-1" d="M75.43.11H502.36c.64,1.59,2.16,1,3.3,1.28C518,4,530,7.94,540.35,15.21,565.88,33.07,578.74,57.83,578.76,89q.11,200.33,0,400.64c0,50.8-38.27,89-89.1,89.17-19.29.06-38.58,0-57.86,0q-170.86,0-341.71.05a91.6,91.6,0,0,1-48.77-13.39c-21-12.86-34-31.83-39.37-56-.45-2,0-4.43-1.88-6v-428c1.24-.58,1-1.8,1.22-2.82C9.55,34.21,32.92,10.75,71.13,1.87,72.59,1.53,74.52,2,75.43.11Z" transform="translate(0 56.96)"/><path class="cls-2" d="M.09,503.47c1.91,1.59,1.43,4,1.88,6,5.37,24.14,18.36,43.11,39.37,56a91.6,91.6,0,0,0,48.77,13.39q170.85-.15,341.71-.05c19.28,0,38.57.05,57.86,0,50.83-.15,89.08-38.37,89.1-89.17q.06-200.31,0-400.64c0-31.15-12.88-55.91-38.41-73.77C530,7.94,518,4,505.66,1.39c-1.14-.24-2.66.31-3.3-1.28,24.39,0,48.78.11,73.16-.11,3.74,0,4.47.74,4.47,4.48q-.18,251.4-.1,502.81c0,22.74-.11,45.49.11,68.24,0,3.74-.74,4.47-4.48,4.47q-251.41-.18-502.82-.1c-23.11,0-46.22-.06-69.34.07C.63,580,0,579.35,0,576.62.14,552.24.09,527.85.09,503.47Z" transform="translate(0 56.96)"/><path class="cls-2" d="M75.43.11c-.91,1.85-2.84,1.42-4.3,1.76C32.92,10.75,9.55,34.21,1.31,72.63c-.22,1,0,2.24-1.22,2.82C.09,51.52.16,27.58,0,3.65,0,.63.6,0,3.62,0,27.56.18,51.49.11,75.43.11Z" transform="translate(0 56.96)"/></g><g id="Camada_1_Imagem" data-name="Camada 1 Imagem"><text class="cls-3" transform="translate(277.56 419)">p</text><circle class="cls-4" cx="320.4" cy="575.72" r="30.4"/></g></svg>