<svg id="svg" version="1.1" xmlns="http://www.w3.org/2000/svg" xmlns:xlink="http://www.w3.org/1999/xlink" width="400" height="400" viewBox="0, 0, 400,400"><g id="svgg"><path id="path0" d="M193.800 105.844 C 179.005 109.550,173.508 126.242,183.386 137.467 C 194.956 150.616,217.172 142.137,217.196 124.563 C 217.207 116.276,212.671 110.124,203.800 106.394 C 202.580 105.881,195.259 105.479,193.800 105.844 M294.053 150.300 C 293.539 152.885,292.957 155.720,292.760 156.600 C 292.562 157.480,292.125 159.460,291.787 161.000 C 290.692 165.996,290.468 166.916,288.864 173.000 C 286.194 183.124,285.587 185.362,285.228 186.400 C 285.038 186.950,284.577 188.480,284.204 189.800 C 282.960 194.206,276.903 212.219,275.193 216.600 C 275.021 217.040,274.656 218.030,274.380 218.800 C 274.105 219.570,273.658 220.740,273.387 221.400 C 273.116 222.060,272.666 223.230,272.387 224.000 C 272.108 224.770,271.656 225.940,271.381 226.600 C 271.107 227.260,270.302 229.240,269.592 231.000 C 268.882 232.760,267.946 235.010,267.511 236.000 C 267.076 236.990,266.568 238.160,266.382 238.600 C 263.131 246.288,254.332 263.807,253.223 264.800 C 253.100 264.910,252.800 265.360,252.556 265.800 C 251.762 267.233,251.164 266.671,248.304 261.800 C 234.720 238.666,221.475 208.151,214.623 184.200 C 214.245 182.880,213.789 181.350,213.609 180.800 C 212.845 178.462,210.400 169.478,210.400 169.007 C 210.400 168.893,204.435 168.800,197.144 168.800 C 182.740 168.800,182.847 168.783,182.813 171.036 C 182.806 171.496,182.422 173.296,181.959 175.036 C 181.496 176.776,180.971 178.830,180.791 179.600 C 180.611 180.370,180.171 181.990,179.813 183.200 C 179.455 184.410,178.903 186.344,178.586 187.498 C 177.946 189.834,173.761 202.547,173.220 203.800 C 173.030 204.240,171.758 207.570,170.393 211.200 C 169.028 214.830,167.682 218.340,167.401 219.000 C 167.120 219.660,166.122 222.090,165.183 224.400 C 164.245 226.710,163.324 228.771,163.138 228.980 C 162.952 229.189,162.800 229.583,162.800 229.856 C 162.800 230.129,162.110 231.848,161.268 233.676 C 160.425 235.504,159.304 237.990,158.776 239.200 C 157.727 241.606,150.224 256.536,148.915 258.823 C 143.435 268.394,144.182 268.004,141.305 262.800 C 140.879 262.030,139.981 260.410,139.310 259.200 C 131.623 245.342,123.955 226.833,116.359 203.800 C 112.453 191.956,112.729 192.824,110.973 186.800 C 109.392 181.376,109.369 181.296,107.802 175.400 C 106.149 169.182,105.600 166.918,103.192 156.400 C 102.434 153.089,101.558 148.890,101.335 147.500 L 101.095 146.000 87.755 146.000 L 74.415 146.000 74.626 147.900 C 74.741 148.945,75.001 150.790,75.202 152.000 C 75.403 153.210,75.855 156.000,76.206 158.200 C 76.557 160.400,77.012 163.010,77.216 164.000 C 77.420 164.990,77.869 167.240,78.214 169.000 C 79.231 174.187,80.204 178.359,81.853 184.600 C 83.988 192.680,85.550 197.991,87.971 205.400 C 88.618 207.380,89.896 211.070,90.811 213.600 C 91.726 216.130,92.613 218.650,92.782 219.200 C 92.951 219.750,93.493 221.190,93.986 222.400 C 94.479 223.610,95.022 224.960,95.193 225.400 C 96.508 228.785,96.978 229.960,97.454 231.060 C 97.754 231.754,98.000 232.423,98.000 232.549 C 98.000 232.674,98.450 233.760,99.000 234.963 C 99.550 236.165,100.000 237.246,100.000 237.364 C 100.000 237.483,100.559 238.799,101.243 240.290 C 101.927 241.780,102.808 243.810,103.200 244.800 C 108.241 257.518,121.644 282.142,129.219 292.600 C 139.538 306.847,148.817 305.591,160.246 288.400 C 169.230 274.887,178.534 257.294,184.572 242.400 C 185.598 239.870,186.594 237.440,186.787 237.000 C 188.861 232.256,193.114 219.730,196.869 207.300 C 197.394 205.562,197.771 205.662,198.382 207.700 C 198.662 208.635,199.037 209.760,199.216 210.200 C 199.394 210.640,200.279 213.340,201.182 216.200 C 202.085 219.060,203.269 222.615,203.812 224.100 C 204.355 225.585,205.264 228.105,205.832 229.700 C 206.400 231.295,207.024 232.960,207.220 233.400 C 207.416 233.840,208.127 235.640,208.800 237.400 C 210.137 240.894,210.232 241.123,211.759 244.511 C 212.331 245.782,212.800 246.963,212.800 247.136 C 212.800 247.308,213.136 248.159,213.547 249.025 C 213.958 249.891,214.614 251.320,215.004 252.200 C 216.997 256.692,223.027 268.752,225.305 272.800 C 226.729 275.330,228.265 278.058,228.719 278.862 C 234.986 289.973,241.848 298.471,246.228 300.544 C 247.093 300.954,248.140 301.466,248.556 301.683 C 254.412 304.735,262.313 298.970,270.870 285.400 C 276.660 276.218,290.000 250.848,290.000 249.019 C 290.000 248.931,290.607 247.540,291.349 245.929 C 292.090 244.318,293.726 240.480,294.982 237.400 C 296.239 234.320,297.427 231.440,297.623 231.000 C 300.696 224.079,309.002 199.250,312.141 187.600 C 314.673 178.205,314.940 177.173,316.179 172.000 C 317.959 164.572,320.494 152.196,321.157 147.700 L 321.466 145.600 308.227 145.600 L 294.987 145.600 294.053 150.300 " stroke="none" fill="#fafafb" fill-rule="evenodd"></path><path id="path1" d="M68.100 23.491 C 67.165 23.576,66.400 23.816,66.400 24.023 C 66.400 24.230,65.770 24.400,65.000 24.400 C 64.230 24.400,63.600 24.563,63.600 24.762 C 63.600 24.962,62.700 25.249,61.600 25.400 C 60.500 25.551,59.600 25.838,59.600 26.038 C 59.600 26.237,59.150 26.400,58.600 26.400 C 58.050 26.400,57.600 26.566,57.600 26.768 C 57.600 26.971,57.060 27.255,56.400 27.400 C 55.740 27.545,55.200 27.829,55.200 28.032 C 55.200 28.234,54.840 28.400,54.400 28.400 C 53.960 28.400,53.600 28.566,53.600 28.768 C 53.600 28.971,53.060 29.255,52.400 29.400 C 51.740 29.545,51.200 29.813,51.200 29.996 C 51.200 30.179,50.375 30.728,49.368 31.216 C 48.360 31.703,47.443 32.343,47.331 32.636 C 47.218 32.929,46.763 33.285,46.319 33.426 C 45.684 33.627,42.562 36.356,40.298 38.689 C 36.844 42.247,35.640 43.643,35.417 44.347 C 35.268 44.816,35.016 45.200,34.857 45.200 C 34.698 45.200,34.042 46.100,33.400 47.200 C 32.758 48.300,32.104 49.200,31.948 49.200 C 31.791 49.200,31.545 49.740,31.400 50.400 C 31.255 51.060,30.971 51.600,30.768 51.600 C 30.566 51.600,30.400 51.960,30.400 52.400 C 30.400 52.840,30.234 53.200,30.032 53.200 C 29.829 53.200,29.545 53.740,29.400 54.400 C 29.255 55.060,28.971 55.600,28.768 55.600 C 28.566 55.600,28.400 56.050,28.400 56.600 C 28.400 57.150,28.237 57.600,28.038 57.600 C 27.838 57.600,27.551 58.500,27.400 59.600 C 27.249 60.700,26.962 61.600,26.762 61.600 C 26.563 61.600,26.400 62.215,26.400 62.967 C 26.400 63.718,26.175 64.408,25.900 64.500 C 25.164 64.745,25.164 335.255,25.900 335.500 C 26.175 335.592,26.400 336.282,26.400 337.033 C 26.400 337.785,26.563 338.400,26.762 338.400 C 26.962 338.400,27.249 339.300,27.400 340.400 C 27.551 341.500,27.838 342.400,28.038 342.400 C 28.237 342.400,28.400 342.850,28.400 343.400 C 28.400 343.950,28.566 344.400,28.768 344.400 C 28.971 344.400,29.255 344.940,29.400 345.600 C 29.545 346.260,29.829 346.800,30.032 346.800 C 30.234 346.800,30.400 347.160,30.400 347.600 C 30.400 348.040,30.566 348.400,30.768 348.400 C 30.971 348.400,31.255 348.940,31.400 349.600 C 31.545 350.260,31.791 350.800,31.948 350.800 C 32.104 350.800,32.758 351.700,33.400 352.800 C 34.042 353.900,34.698 354.800,34.857 354.800 C 35.016 354.800,35.268 355.184,35.417 355.653 C 35.640 356.357,36.844 357.753,40.298 361.311 C 42.562 363.644,45.684 366.373,46.319 366.574 C 46.763 366.715,47.218 367.071,47.331 367.364 C 47.443 367.657,48.360 368.297,49.368 368.784 C 50.375 369.272,51.200 369.821,51.200 370.004 C 51.200 370.187,51.740 370.455,52.400 370.600 C 53.060 370.745,53.600 371.029,53.600 371.232 C 53.600 371.434,53.960 371.600,54.400 371.600 C 54.840 371.600,55.200 371.766,55.200 371.968 C 55.200 372.171,55.740 372.455,56.400 372.600 C 57.060 372.745,57.600 373.029,57.600 373.232 C 57.600 373.434,58.050 373.600,58.600 373.600 C 59.150 373.600,59.600 373.763,59.600 373.962 C 59.600 374.162,60.500 374.449,61.600 374.600 C 62.700 374.751,63.600 375.038,63.600 375.238 C 63.600 375.437,64.215 375.600,64.967 375.600 C 65.718 375.600,66.408 375.825,66.500 376.100 C 66.745 376.836,333.255 376.836,333.500 376.100 C 333.592 375.825,334.282 375.600,335.033 375.600 C 335.785 375.600,336.400 375.437,336.400 375.238 C 336.400 375.038,337.300 374.751,338.400 374.600 C 339.500 374.449,340.400 374.162,340.400 373.962 C 340.400 373.763,340.850 373.600,341.400 373.600 C 341.950 373.600,342.400 373.434,342.400 373.232 C 342.400 373.029,342.940 372.745,343.600 372.600 C 344.260 372.455,344.800 372.171,344.800 371.968 C 344.800 371.766,345.160 371.600,345.600 371.600 C 346.040 371.600,346.400 371.434,346.400 371.232 C 346.400 371.029,346.940 370.745,347.600 370.600 C 348.260 370.455,348.800 370.187,348.800 370.004 C 348.800 369.821,349.625 369.272,350.632 368.784 C 351.640 368.297,352.557 367.657,352.669 367.364 C 352.782 367.071,353.237 366.715,353.681 366.574 C 354.316 366.373,357.438 363.644,359.702 361.311 C 363.139 357.769,364.358 356.363,364.571 355.690 C 364.714 355.241,365.071 354.782,365.364 354.669 C 365.657 354.557,366.297 353.640,366.784 352.632 C 367.272 351.625,367.821 350.800,368.004 350.800 C 368.187 350.800,368.455 350.260,368.600 349.600 C 368.745 348.940,369.029 348.400,369.232 348.400 C 369.434 348.400,369.600 348.040,369.600 347.600 C 369.600 347.160,369.766 346.800,369.968 346.800 C 370.171 346.800,370.455 346.260,370.600 345.600 C 370.745 344.940,371.029 344.400,371.232 344.400 C 371.434 344.400,371.600 343.950,371.600 343.400 C 371.600 342.850,371.763 342.400,371.962 342.400 C 372.162 342.400,372.449 341.500,372.600 340.400 C 372.751 339.300,373.038 338.400,373.238 338.400 C 373.437 338.400,373.600 337.785,373.600 337.033 C 373.600 336.282,373.825 335.592,374.100 335.500 C 374.499 335.367,374.600 307.911,374.600 200.000 C 374.600 92.089,374.499 64.633,374.100 64.500 C 373.825 64.408,373.600 63.718,373.600 62.967 C 373.600 62.215,373.437 61.600,373.238 61.600 C 373.038 61.600,372.751 60.700,372.600 59.600 C 372.449 58.500,372.162 57.600,371.962 57.600 C 371.763 57.600,371.600 57.150,371.600 56.600 C 371.600 56.050,371.434 55.600,371.232 55.600 C 371.029 55.600,370.745 55.060,370.600 54.400 C 370.455 53.740,370.171 53.200,369.968 53.200 C 369.766 53.200,369.600 52.840,369.600 52.400 C 369.600 51.960,369.434 51.600,369.232 51.600 C 369.029 51.600,368.745 51.060,368.600 50.400 C 368.455 49.740,368.209 49.200,368.052 49.200 C 367.896 49.200,367.242 48.300,366.600 47.200 C 365.958 46.100,365.302 45.200,365.143 45.200 C 364.984 45.200,364.732 44.816,364.583 44.347 C 364.360 43.643,363.156 42.247,359.702 38.689 C 357.438 36.356,354.316 33.627,353.681 33.426 C 353.237 33.285,352.782 32.929,352.669 32.636 C 352.557 32.343,351.640 31.703,350.632 31.216 C 349.625 30.728,348.800 30.179,348.800 29.996 C 348.800 29.813,348.260 29.545,347.600 29.400 C 346.940 29.255,346.400 28.971,346.400 28.768 C 346.400 28.566,346.040 28.400,345.600 28.400 C 345.160 28.400,344.800 28.234,344.800 28.032 C 344.800 27.829,344.260 27.545,343.600 27.400 C 342.940 27.255,342.400 26.971,342.400 26.768 C 342.400 26.566,341.950 26.400,341.400 26.400 C 340.850 26.400,340.400 26.237,340.400 26.038 C 340.400 25.838,339.500 25.551,338.400 25.400 C 337.300 25.249,336.400 24.962,336.400 24.762 C 336.400 24.563,335.785 24.400,335.033 24.400 C 334.282 24.400,333.592 24.175,333.500 23.900 C 333.343 23.428,73.171 23.027,68.100 23.491 M203.650 105.803 C 208.099 107.335,214.800 112.386,214.800 114.208 C 214.800 114.497,214.945 114.793,215.122 114.867 C 215.299 114.940,215.967 116.242,216.607 117.760 C 219.576 124.802,217.351 133.871,211.365 139.125 C 208.787 141.388,208.627 141.486,204.800 143.151 C 201.145 144.741,194.783 144.765,191.000 143.203 C 190.560 143.021,189.916 142.784,189.568 142.675 C 183.033 140.632,178.205 133.032,178.202 124.781 L 178.200 119.361 179.743 116.237 C 183.997 107.627,195.000 102.825,203.650 105.803 M101.676 146.600 C 101.859 147.260,102.270 149.150,102.589 150.800 C 103.183 153.869,103.520 155.439,104.564 160.000 C 104.892 161.430,105.549 164.310,106.023 166.400 C 106.498 168.490,107.032 170.560,107.209 171.000 C 107.386 171.440,107.839 173.150,108.215 174.800 C 108.592 176.450,109.038 178.160,109.206 178.600 C 109.374 179.040,109.822 180.570,110.201 182.000 C 110.580 183.430,111.029 185.050,111.198 185.600 C 111.367 186.150,111.822 187.680,112.209 189.000 C 112.596 190.320,113.053 191.850,113.224 192.400 C 116.247 202.121,116.945 204.324,117.216 205.000 C 117.393 205.440,117.843 206.700,118.217 207.800 C 119.451 211.437,122.691 220.567,123.184 221.800 C 123.516 222.630,124.669 225.604,125.200 227.000 C 126.253 229.770,127.022 231.657,127.854 233.511 C 128.374 234.672,128.800 235.769,128.800 235.949 C 128.800 236.130,129.056 236.800,129.369 237.439 C 129.933 238.590,131.469 241.953,133.188 245.800 C 134.470 248.670,138.481 256.619,139.950 259.200 C 140.638 260.410,141.767 262.436,142.457 263.702 C 143.808 266.177,144.216 266.227,145.323 264.058 C 145.620 263.476,147.036 260.915,148.469 258.366 C 152.297 251.558,158.430 238.981,161.618 231.400 C 161.803 230.960,162.415 229.560,162.977 228.288 C 163.540 227.017,164.000 225.880,164.000 225.763 C 164.000 225.645,164.450 224.565,165.000 223.363 C 165.550 222.160,166.000 221.074,166.000 220.949 C 166.000 220.823,166.255 220.154,166.566 219.460 C 166.877 218.767,167.893 216.220,168.823 213.800 C 169.753 211.380,170.654 209.040,170.825 208.600 C 170.996 208.160,171.600 206.495,172.168 204.900 C 172.736 203.305,173.634 200.785,174.165 199.300 C 174.696 197.815,175.429 195.610,175.794 194.400 C 176.159 193.190,176.606 191.840,176.789 191.400 C 176.971 190.960,177.422 189.520,177.792 188.200 C 178.162 186.880,178.611 185.350,178.791 184.800 C 179.108 183.831,180.050 180.468,180.808 177.600 C 181.012 176.830,181.468 174.850,181.822 173.200 C 182.176 171.550,182.627 169.795,182.824 169.300 L 183.183 168.400 196.781 168.400 L 210.379 168.400 210.915 169.500 C 211.209 170.105,211.770 171.950,212.160 173.600 C 212.550 175.250,213.014 176.960,213.190 177.400 C 213.367 177.840,213.821 179.370,214.200 180.800 C 214.579 182.230,215.026 183.760,215.194 184.200 C 215.363 184.640,215.802 186.080,216.172 187.400 C 216.541 188.720,216.989 190.160,217.167 190.600 C 217.345 191.040,217.801 192.390,218.179 193.600 C 218.558 194.810,219.020 196.160,219.205 196.600 C 219.391 197.040,219.842 198.390,220.207 199.600 C 220.572 200.810,221.098 202.340,221.375 203.000 C 221.653 203.660,222.105 204.830,222.380 205.600 C 222.656 206.370,223.021 207.360,223.192 207.800 C 223.364 208.240,223.814 209.410,224.193 210.400 C 224.572 211.390,225.044 212.513,225.241 212.895 C 225.438 213.277,225.600 213.772,225.600 213.997 C 225.600 214.221,226.050 215.337,226.600 216.477 C 227.150 217.617,227.600 218.683,227.600 218.846 C 227.600 219.008,228.230 220.505,229.000 222.172 C 229.770 223.839,230.400 225.302,230.400 225.424 C 230.400 226.548,240.575 247.062,244.773 254.400 C 245.465 255.610,246.244 257.095,246.503 257.700 C 246.763 258.305,247.116 258.800,247.288 258.800 C 247.459 258.800,247.600 258.977,247.600 259.193 C 247.600 259.409,248.287 260.714,249.126 262.093 C 249.965 263.472,250.775 264.930,250.926 265.333 C 251.315 266.373,251.958 266.014,252.985 264.184 C 253.473 263.313,254.531 261.430,255.335 260.000 C 257.520 256.115,265.200 240.430,265.200 239.854 C 265.200 239.746,265.830 238.295,266.600 236.628 C 267.370 234.961,268.000 233.496,268.000 233.373 C 268.000 233.250,268.450 232.165,269.000 230.963 C 269.550 229.760,270.000 228.674,270.000 228.549 C 270.000 228.423,270.249 227.754,270.553 227.060 C 270.857 226.367,271.334 225.170,271.613 224.400 C 271.892 223.630,272.346 222.460,272.623 221.800 C 272.900 221.140,273.877 218.530,274.793 216.000 C 275.710 213.470,276.612 211.040,276.797 210.600 C 278.010 207.725,284.400 187.668,284.400 186.737 C 284.400 186.405,284.526 186.008,284.679 185.854 C 284.833 185.700,285.383 184.005,285.900 182.087 C 287.846 174.883,288.883 170.957,289.200 169.600 C 289.380 168.830,289.826 166.940,290.190 165.400 C 290.555 163.860,291.280 160.620,291.802 158.200 C 292.324 155.780,292.841 153.440,292.950 153.000 C 293.058 152.560,293.457 150.625,293.836 148.700 L 294.525 145.200 308.291 145.200 L 322.058 145.200 321.793 147.500 C 321.648 148.765,321.378 150.340,321.194 151.000 C 321.011 151.660,320.561 154.000,320.194 156.200 C 319.828 158.400,319.364 160.513,319.164 160.895 C 318.964 161.277,318.800 162.075,318.800 162.668 C 318.800 163.262,318.518 164.839,318.174 166.174 C 317.118 170.271,316.873 171.294,316.203 174.400 C 315.848 176.050,315.410 177.760,315.230 178.200 C 315.050 178.640,314.579 180.440,314.184 182.200 C 313.789 183.960,313.316 185.571,313.133 185.780 C 312.950 185.989,312.800 186.513,312.800 186.945 C 312.800 187.694,311.842 191.306,311.194 193.000 C 311.026 193.440,310.568 194.970,310.177 196.400 C 309.785 197.830,309.315 199.171,309.132 199.380 C 308.950 199.589,308.800 200.078,308.800 200.466 C 308.800 201.133,307.946 204.047,307.236 205.800 C 307.058 206.240,306.580 207.680,306.175 209.000 C 305.769 210.320,305.317 211.670,305.169 212.000 C 305.021 212.330,304.574 213.680,304.177 215.000 C 303.779 216.320,303.344 217.580,303.211 217.800 C 303.077 218.020,302.627 219.280,302.211 220.600 C 301.794 221.920,301.338 223.180,301.196 223.400 C 301.054 223.620,300.620 224.700,300.231 225.800 C 299.843 226.900,299.272 228.367,298.962 229.060 C 298.653 229.754,298.400 230.431,298.400 230.565 C 298.400 230.699,298.065 231.572,297.655 232.504 C 297.245 233.437,296.590 235.010,296.200 236.000 C 295.256 238.397,294.453 240.267,293.547 242.175 C 293.136 243.041,292.800 243.886,292.800 244.051 C 292.800 244.217,292.110 245.848,291.268 247.676 C 290.425 249.504,289.304 251.990,288.776 253.200 C 287.767 255.516,280.428 270.123,278.728 273.200 C 276.796 276.696,275.462 279.017,274.536 280.492 C 274.021 281.313,273.600 282.168,273.600 282.392 C 273.600 282.616,273.441 282.800,273.247 282.800 C 273.052 282.800,272.788 283.115,272.658 283.500 C 272.419 284.212,271.578 285.637,271.182 286.000 C 271.062 286.110,270.180 287.460,269.221 289.000 C 268.263 290.540,267.371 291.890,267.239 292.000 C 267.108 292.110,266.291 293.081,265.425 294.159 C 258.885 302.293,253.114 304.495,246.564 301.354 C 244.330 300.282,236.400 292.998,236.400 292.017 C 236.400 291.819,236.158 291.415,235.862 291.119 C 235.566 290.823,233.763 288.065,231.856 284.990 C 229.949 281.916,228.211 279.130,227.993 278.800 C 227.776 278.470,227.423 277.840,227.210 277.400 C 226.997 276.960,226.096 275.340,225.208 273.800 C 223.421 270.701,216.744 257.451,215.230 254.000 C 214.699 252.790,213.575 250.304,212.732 248.476 C 211.890 246.648,211.200 245.017,211.200 244.851 C 211.200 244.685,210.750 243.617,210.200 242.477 C 209.650 241.337,209.200 240.169,209.200 239.882 C 209.200 239.595,209.050 239.189,208.866 238.980 C 208.682 238.771,208.215 237.700,207.828 236.600 C 207.441 235.500,206.872 234.033,206.562 233.340 C 206.253 232.646,206.000 231.879,206.000 231.634 C 206.000 231.389,205.831 230.877,205.625 230.495 C 205.183 229.676,203.673 225.490,202.200 221.000 C 201.623 219.240,200.995 217.440,200.805 217.000 C 200.614 216.560,199.864 214.265,199.138 211.900 C 197.763 207.422,197.380 206.856,196.972 208.700 C 196.657 210.125,195.634 213.574,195.221 214.600 C 195.044 215.040,194.598 216.480,194.228 217.800 C 193.859 219.120,193.406 220.560,193.221 221.000 C 193.036 221.440,192.582 222.700,192.211 223.800 C 191.841 224.900,191.396 226.160,191.224 226.600 C 191.051 227.040,190.588 228.390,190.195 229.600 C 189.803 230.810,189.353 231.980,189.196 232.200 C 189.039 232.420,188.787 233.115,188.636 233.744 C 188.486 234.373,188.030 235.633,187.623 236.544 C 187.216 237.455,186.303 239.640,185.593 241.400 C 184.883 243.160,183.983 245.320,183.594 246.200 C 183.204 247.080,182.551 248.654,182.143 249.699 C 181.734 250.743,181.265 251.598,181.100 251.599 C 180.935 251.599,180.800 251.865,180.800 252.190 C 180.800 252.514,180.080 254.207,179.200 255.952 C 178.320 257.697,177.600 259.307,177.600 259.529 C 177.600 259.752,177.465 259.993,177.300 260.067 C 177.135 260.140,176.149 261.910,175.110 264.000 C 172.896 268.450,170.420 273.024,168.771 275.706 C 168.127 276.754,167.600 277.789,167.600 278.006 C 167.600 278.223,167.420 278.400,167.200 278.400 C 166.980 278.400,166.800 278.577,166.800 278.793 C 166.800 279.193,163.700 284.436,163.248 284.800 C 162.852 285.119,161.998 286.537,161.742 287.300 C 161.612 287.685,161.389 288.000,161.244 288.000 C 161.100 288.000,160.643 288.630,160.228 289.400 C 159.813 290.170,159.322 290.800,159.137 290.800 C 158.952 290.800,158.800 290.992,158.800 291.227 C 158.800 292.840,151.419 300.250,148.294 301.775 C 143.099 304.309,137.365 302.665,132.261 297.177 C 125.844 290.276,113.187 268.444,104.794 249.800 C 103.682 247.330,102.068 243.670,101.619 242.600 C 101.434 242.160,100.814 240.760,100.241 239.489 C 99.669 238.218,99.200 237.037,99.200 236.864 C 99.200 236.691,98.750 235.617,98.200 234.477 C 97.650 233.337,97.200 232.251,97.200 232.063 C 97.200 231.876,96.950 231.200,96.644 230.561 C 96.339 229.923,94.973 226.430,93.610 222.800 C 92.246 219.170,90.974 215.840,90.782 215.400 C 90.301 214.294,85.470 199.542,84.625 196.600 C 84.246 195.280,83.791 193.750,83.614 193.200 C 83.438 192.650,83.100 191.480,82.865 190.600 C 82.630 189.720,82.147 187.920,81.791 186.600 C 80.693 182.524,80.435 181.494,79.792 178.600 C 79.450 177.060,79.003 175.170,78.798 174.400 C 77.772 170.540,75.958 160.636,74.402 150.400 C 74.218 149.190,74.052 147.523,74.034 146.695 L 74.000 145.189 87.671 145.295 L 101.343 145.400 101.676 146.600 " stroke="none" fill="#0c3961" fill-rule="evenodd"></path><path id="path2" d="M196.291 105.489 C 197.001 105.577,198.261 105.579,199.091 105.492 C 199.921 105.405,199.340 105.333,197.800 105.331 C 196.260 105.329,195.581 105.400,196.291 105.489 M181.600 113.600 C 181.130 114.260,180.836 114.800,180.946 114.800 C 181.056 114.800,181.530 114.260,182.000 113.600 C 182.470 112.940,182.764 112.400,182.654 112.400 C 182.544 112.400,182.070 112.940,181.600 113.600 M179.244 118.044 C 178.998 118.751,178.866 119.400,178.952 119.485 C 179.038 119.571,179.309 119.062,179.556 118.356 C 179.802 117.649,179.934 117.000,179.848 116.915 C 179.762 116.829,179.491 117.338,179.244 118.044 M217.331 124.600 C 217.333 126.140,217.405 126.721,217.492 125.891 C 217.579 125.061,217.577 123.801,217.489 123.091 C 217.400 122.381,217.329 123.060,217.331 124.600 M178.120 124.800 C 178.120 126.010,178.195 126.505,178.287 125.900 C 178.378 125.295,178.378 124.305,178.287 123.700 C 178.195 123.095,178.120 123.590,178.120 124.800 M216.629 129.429 C 216.481 130.015,216.438 130.572,216.532 130.666 C 216.627 130.760,216.824 130.358,216.971 129.771 C 217.119 129.185,217.162 128.628,217.068 128.534 C 216.973 128.440,216.776 128.842,216.629 129.429 M215.665 132.217 C 214.995 133.688,215.123 134.002,215.847 132.665 C 216.186 132.040,216.388 131.454,216.296 131.363 C 216.205 131.271,215.921 131.656,215.665 132.217 M181.162 135.043 C 181.385 135.507,182.406 136.767,183.430 137.843 C 184.657 139.132,184.833 139.254,183.946 138.200 C 183.205 137.320,182.184 136.060,181.677 135.400 C 181.171 134.740,180.938 134.580,181.162 135.043 M212.027 137.709 C 210.555 139.396,210.341 139.748,211.362 138.800 C 212.704 137.554,214.660 135.185,214.327 135.209 C 214.257 135.214,213.222 136.339,212.027 137.709 M189.600 142.333 C 189.930 142.536,190.650 142.824,191.200 142.971 C 191.895 143.157,192.017 143.125,191.600 142.867 C 191.270 142.664,190.550 142.376,190.000 142.229 C 189.305 142.043,189.183 142.075,189.600 142.333 M200.800 143.600 C 199.996 143.857,199.957 143.923,200.600 143.932 C 201.040 143.938,201.760 143.789,202.200 143.600 C 203.219 143.162,202.168 143.162,200.800 143.600 M301.300 145.499 C 304.985 145.565,311.015 145.565,314.700 145.499 C 318.385 145.433,315.370 145.379,308.000 145.379 C 300.630 145.379,297.615 145.433,301.300 145.499 M74.267 145.867 C 74.120 146.013,74.003 146.328,74.006 146.567 C 74.010 146.828,74.137 146.803,74.326 146.505 C 74.563 146.133,77.932 145.984,88.020 145.900 L 101.400 145.789 87.967 145.694 C 80.578 145.642,74.413 145.720,74.267 145.867 M294.222 147.822 C 294.072 148.625,294.028 149.362,294.126 149.460 C 294.224 149.557,294.427 148.981,294.578 148.178 C 294.728 147.375,294.772 146.638,294.674 146.540 C 294.576 146.443,294.373 147.019,294.222 147.822 M101.268 147.400 C 101.262 147.840,101.411 148.560,101.600 149.000 C 102.038 150.019,102.038 148.968,101.600 147.600 C 101.343 146.796,101.277 146.757,101.268 147.400 M75.293 154.000 C 75.293 154.770,75.375 155.085,75.476 154.700 C 75.576 154.315,75.576 153.685,75.476 153.300 C 75.375 152.915,75.293 153.230,75.293 154.000 M319.400 156.800 C 319.248 157.491,319.207 158.141,319.309 158.242 C 319.411 158.344,319.609 157.853,319.750 157.150 C 320.083 155.483,319.760 155.160,319.400 156.800 M291.246 162.067 C 291.221 162.434,291.096 163.064,290.970 163.467 C 290.752 164.162,290.763 164.163,291.197 163.487 C 291.448 163.096,291.573 162.466,291.473 162.087 C 291.311 161.468,291.288 161.466,291.246 162.067 M77.062 164.600 C 77.196 165.480,77.372 166.275,77.453 166.367 C 77.756 166.710,77.529 164.568,77.181 163.800 C 76.929 163.242,76.893 163.485,77.062 164.600 M290.229 166.229 C 290.081 166.815,290.038 167.372,290.132 167.466 C 290.227 167.560,290.424 167.158,290.571 166.571 C 290.719 165.985,290.762 165.428,290.668 165.334 C 290.573 165.240,290.376 165.642,290.229 166.229 M317.429 166.229 C 317.281 166.815,317.238 167.372,317.332 167.466 C 317.427 167.560,317.624 167.158,317.771 166.571 C 317.919 165.985,317.962 165.428,317.868 165.334 C 317.773 165.240,317.576 165.642,317.429 166.229 M182.229 172.629 C 182.081 173.215,182.038 173.772,182.132 173.866 C 182.227 173.960,182.424 173.558,182.571 172.971 C 182.719 172.385,182.762 171.828,182.668 171.734 C 182.573 171.640,182.376 172.042,182.229 172.629 M211.256 172.400 C 211.256 172.730,211.411 173.360,211.600 173.800 C 211.817 174.304,211.944 174.378,211.944 174.000 C 211.944 173.670,211.789 173.040,211.600 172.600 C 211.383 172.096,211.256 172.022,211.256 172.400 M288.229 174.229 C 288.081 174.815,288.038 175.372,288.132 175.466 C 288.227 175.560,288.424 175.158,288.571 174.571 C 288.719 173.985,288.762 173.428,288.668 173.334 C 288.573 173.240,288.376 173.642,288.229 174.229 M82.056 186.400 C 82.056 186.730,82.211 187.360,82.400 187.800 C 82.617 188.304,82.744 188.378,82.744 188.000 C 82.744 187.670,82.589 187.040,82.400 186.600 C 82.183 186.096,82.056 186.022,82.056 186.400 M188.444 232.444 C 188.198 233.151,188.066 233.800,188.152 233.885 C 188.238 233.971,188.509 233.462,188.756 232.756 C 189.002 232.049,189.134 231.400,189.048 231.315 C 188.962 231.229,188.691 231.738,188.444 232.444 M99.267 236.420 C 99.501 237.092,99.767 237.567,99.857 237.476 C 100.056 237.278,99.301 235.200,99.031 235.200 C 98.927 235.200,99.033 235.749,99.267 236.420 M186.379 237.855 C 186.158 238.436,186.052 238.985,186.143 239.076 C 186.233 239.167,186.499 238.692,186.733 238.020 C 187.253 236.528,186.939 236.382,186.379 237.855 M155.681 245.009 C 155.202 245.994,154.894 246.800,154.997 246.800 C 155.268 246.800,156.884 243.551,156.703 243.370 C 156.619 243.286,156.159 244.024,155.681 245.009 M107.234 254.200 C 107.234 254.420,107.578 255.230,108.000 256.000 C 108.422 256.770,108.766 257.220,108.766 257.000 C 108.766 256.780,108.422 255.970,108.000 255.200 C 107.578 254.430,107.234 253.980,107.234 254.200 M257.600 256.400 C 257.151 257.280,256.874 258.000,256.984 258.000 C 257.094 258.000,257.551 257.280,258.000 256.400 C 258.449 255.520,258.726 254.800,258.616 254.800 C 258.506 254.800,258.049 255.520,257.600 256.400 M113.600 267.200 C 114.049 268.080,114.506 268.800,114.616 268.800 C 114.726 268.800,114.449 268.080,114.000 267.200 C 113.551 266.320,113.094 265.600,112.984 265.600 C 112.874 265.600,113.151 266.320,113.600 267.200 M278.000 273.200 C 277.551 274.080,277.274 274.800,277.384 274.800 C 277.494 274.800,277.951 274.080,278.400 273.200 C 278.849 272.320,279.126 271.600,279.016 271.600 C 278.906 271.600,278.449 272.320,278.000 273.200 M225.600 274.000 C 226.049 274.880,226.506 275.600,226.616 275.600 C 226.726 275.600,226.449 274.880,226.000 274.000 C 225.551 273.120,225.094 272.400,224.984 272.400 C 224.874 272.400,225.151 273.120,225.600 274.000 M162.153 285.300 C 160.776 287.636,160.686 287.835,161.387 287.000 C 162.200 286.032,162.900 284.800,162.638 284.800 C 162.533 284.800,162.315 285.025,162.153 285.300 M124.349 285.800 C 124.565 286.240,125.034 286.960,125.393 287.400 L 126.044 288.200 125.651 287.400 C 125.435 286.960,124.966 286.240,124.607 285.800 L 123.956 285.000 124.349 285.800 M269.353 287.700 C 267.976 290.036,267.886 290.235,268.587 289.400 C 269.400 288.432,270.100 287.200,269.838 287.200 C 269.733 287.200,269.515 287.425,269.353 287.700 M266.400 292.000 C 265.703 292.880,265.223 293.600,265.333 293.600 C 265.443 293.600,266.103 292.880,266.800 292.000 C 267.497 291.120,267.977 290.400,267.867 290.400 C 267.757 290.400,267.097 291.120,266.400 292.000 M240.600 296.400 C 241.906 297.720,243.065 298.800,243.175 298.800 C 243.285 298.800,242.306 297.720,241.000 296.400 C 239.694 295.080,238.535 294.000,238.425 294.000 C 238.315 294.000,239.294 295.080,240.600 296.400 M152.800 297.697 C 151.150 299.273,150.340 300.179,151.000 299.712 C 152.178 298.879,156.348 294.784,155.985 294.817 C 155.883 294.826,154.450 296.122,152.800 297.697 M133.200 297.800 C 134.395 299.010,135.463 300.000,135.573 300.000 C 135.683 300.000,134.795 299.010,133.600 297.800 C 132.405 296.590,131.337 295.600,131.227 295.600 C 131.117 295.600,132.005 296.590,133.200 297.800 M260.494 298.412 C 259.775 299.065,259.337 299.600,259.519 299.600 C 259.701 299.600,260.368 299.060,261.000 298.400 C 262.470 296.865,262.186 296.872,260.494 298.412 M142.705 302.683 C 143.202 302.779,143.922 302.775,144.305 302.675 C 144.687 302.575,144.280 302.496,143.400 302.501 C 142.520 302.505,142.207 302.587,142.705 302.683 " stroke="none" fill="#8c9caf" fill-rule="evenodd"></path><path id="path3" d="M192.600 105.600 C 192.096 105.817,192.022 105.944,192.400 105.944 C 192.730 105.944,193.360 105.789,193.800 105.600 C 194.304 105.383,194.378 105.256,194.000 105.256 C 193.670 105.256,193.040 105.411,192.600 105.600 M201.600 105.600 C 202.968 106.038,204.019 106.038,203.000 105.600 C 202.560 105.411,201.840 105.262,201.400 105.268 C 200.757 105.277,200.796 105.343,201.600 105.600 M209.200 108.764 C 209.750 109.214,210.380 109.583,210.600 109.585 C 211.028 109.588,210.305 109.034,209.000 108.360 C 208.469 108.085,208.536 108.221,209.200 108.764 M184.189 110.231 L 182.200 112.061 184.300 110.368 C 186.184 108.849,186.638 108.400,186.289 108.400 C 186.228 108.400,185.283 109.224,184.189 110.231 M213.200 112.183 C 213.200 112.343,213.560 112.931,214.000 113.491 C 214.440 114.050,214.800 114.377,214.800 114.217 C 214.800 114.057,214.440 113.469,214.000 112.909 C 213.560 112.350,213.200 112.023,213.200 112.183 M179.050 117.591 C 178.147 119.847,178.287 120.183,179.237 118.042 C 179.666 117.075,179.945 116.212,179.858 116.125 C 179.771 116.038,179.408 116.698,179.050 117.591 M217.058 120.000 C 217.375 121.725,217.602 122.051,217.594 120.767 C 217.591 120.235,217.411 119.530,217.194 119.200 C 216.918 118.778,216.877 119.015,217.058 120.000 M217.728 124.800 C 217.728 126.230,217.801 126.815,217.889 126.100 C 217.978 125.385,217.978 124.215,217.889 123.500 C 217.801 122.785,217.728 123.370,217.728 124.800 M217.254 128.267 C 217.225 128.744,217.096 129.464,216.970 129.867 C 216.752 130.561,216.764 130.562,217.196 129.888 C 217.447 129.497,217.575 128.777,217.481 128.288 C 217.309 127.401,217.309 127.401,217.254 128.267 M211.785 138.500 L 209.800 140.600 211.900 138.615 C 213.851 136.771,214.183 136.400,213.885 136.400 C 213.822 136.400,212.877 137.345,211.785 138.500 M183.600 138.547 C 184.370 139.382,185.360 140.255,185.800 140.487 C 186.240 140.719,186.510 140.825,186.400 140.722 C 183.842 138.343,182.328 137.167,183.600 138.547 M196.311 144.293 C 197.251 144.378,198.691 144.377,199.511 144.291 C 200.330 144.205,199.560 144.136,197.800 144.137 C 196.040 144.139,195.370 144.209,196.311 144.293 M74.000 145.495 C 74.000 145.663,80.061 145.750,87.470 145.689 C 98.040 145.603,101.017 145.689,101.300 146.089 C 101.574 146.477,101.621 146.455,101.497 146.000 C 101.319 145.347,74.000 144.845,74.000 145.495 M321.254 149.067 C 321.225 149.544,321.096 150.264,320.970 150.667 C 320.752 151.361,320.764 151.362,321.196 150.688 C 321.447 150.297,321.575 149.577,321.481 149.088 C 321.309 148.201,321.309 148.201,321.254 149.067 M74.501 151.000 C 74.505 151.880,74.587 152.193,74.683 151.695 C 74.779 151.198,74.775 150.478,74.675 150.095 C 74.575 149.713,74.496 150.120,74.501 151.000 M292.649 153.815 C 292.512 154.173,292.418 154.856,292.441 155.333 C 292.467 155.881,292.603 155.686,292.810 154.803 C 293.160 153.316,293.065 152.733,292.649 153.815 M103.044 154.600 C 103.373 156.071,103.602 156.390,103.594 155.367 C 103.591 154.945,103.405 154.330,103.182 154.000 C 102.885 153.562,102.848 153.724,103.044 154.600 M319.254 159.267 C 319.225 159.634,319.084 160.264,318.941 160.667 C 318.741 161.233,318.795 161.296,319.175 160.946 C 319.446 160.697,319.587 160.067,319.488 159.546 C 319.390 159.026,319.284 158.900,319.254 159.267 M76.406 163.033 C 76.409 163.675,76.584 164.470,76.795 164.800 C 77.055 165.209,77.099 164.890,76.932 163.800 C 76.629 161.823,76.398 161.486,76.406 163.033 M105.044 163.400 C 105.373 164.871,105.602 165.190,105.594 164.167 C 105.591 163.745,105.405 163.130,105.182 162.800 C 104.885 162.362,104.848 162.524,105.044 163.400 M290.649 163.015 C 290.512 163.373,290.415 163.966,290.434 164.333 C 290.453 164.700,290.627 164.469,290.821 163.820 C 291.198 162.558,291.065 161.933,290.649 163.015 M318.200 164.400 C 318.048 165.091,318.007 165.741,318.109 165.842 C 318.211 165.944,318.409 165.453,318.550 164.750 C 318.883 163.083,318.560 162.760,318.200 164.400 M77.268 167.400 C 77.262 167.840,77.411 168.560,77.600 169.000 C 78.038 170.019,78.038 168.968,77.600 167.600 C 77.343 166.796,77.277 166.757,77.268 167.400 M289.429 168.229 C 289.281 168.815,289.238 169.372,289.332 169.466 C 289.427 169.560,289.624 169.158,289.771 168.571 C 289.919 167.985,289.962 167.428,289.868 167.334 C 289.773 167.240,289.576 167.642,289.429 168.229 M317.246 168.467 C 317.221 168.834,317.096 169.464,316.970 169.867 C 316.752 170.562,316.763 170.563,317.197 169.887 C 317.448 169.496,317.573 168.866,317.473 168.487 C 317.311 167.868,317.288 167.866,317.246 168.467 M183.061 168.700 C 182.959 168.865,186.953 168.954,191.938 168.898 C 208.981 168.707,210.601 168.573,196.924 168.486 C 189.402 168.439,183.164 168.535,183.061 168.700 M181.429 174.629 C 181.281 175.215,181.238 175.772,181.332 175.866 C 181.427 175.960,181.624 175.558,181.771 174.971 C 181.919 174.385,181.962 173.828,181.868 173.734 C 181.773 173.640,181.576 174.042,181.429 174.629 M314.249 180.615 C 314.112 180.973,314.015 181.566,314.034 181.933 C 314.053 182.300,314.227 182.069,314.421 181.420 C 314.798 180.158,314.665 179.533,314.249 180.615 M80.406 181.433 C 80.409 181.855,80.595 182.470,80.818 182.800 C 81.115 183.238,81.152 183.076,80.956 182.200 C 80.627 180.729,80.398 180.410,80.406 181.433 M110.056 182.400 C 110.056 182.730,110.211 183.360,110.400 183.800 C 110.617 184.304,110.744 184.378,110.744 184.000 C 110.744 183.670,110.589 183.040,110.400 182.600 C 110.183 182.096,110.056 182.022,110.056 182.400 M312.229 188.229 C 312.081 188.815,312.038 189.372,312.132 189.466 C 312.227 189.560,312.424 189.158,312.571 188.571 C 312.719 187.985,312.762 187.428,312.668 187.334 C 312.573 187.240,312.376 187.642,312.229 188.229 M82.406 189.033 C 82.409 189.455,82.595 190.070,82.818 190.400 C 83.115 190.838,83.152 190.676,82.956 189.800 C 82.627 188.329,82.398 188.010,82.406 189.033 M172.444 204.044 C 172.198 204.751,172.066 205.400,172.152 205.485 C 172.238 205.571,172.509 205.062,172.756 204.356 C 173.002 203.649,173.134 203.000,173.048 202.915 C 172.962 202.829,172.691 203.338,172.444 204.044 M197.267 207.075 C 196.620 208.284,196.684 208.574,197.432 207.825 C 197.780 207.477,197.990 206.970,197.899 206.697 C 197.797 206.392,197.555 206.537,197.267 207.075 M304.044 214.444 C 303.798 215.151,303.666 215.800,303.752 215.885 C 303.838 215.971,304.109 215.462,304.356 214.756 C 304.602 214.049,304.734 213.400,304.648 213.315 C 304.562 213.229,304.291 213.738,304.044 214.444 M166.379 219.855 C 166.158 220.436,166.052 220.985,166.143 221.076 C 166.233 221.167,166.499 220.692,166.733 220.020 C 167.253 218.528,166.939 218.382,166.379 219.855 M302.044 220.044 C 301.798 220.751,301.666 221.400,301.752 221.485 C 301.838 221.571,302.109 221.062,302.356 220.356 C 302.602 219.649,302.734 219.000,302.648 218.915 C 302.562 218.829,302.291 219.338,302.044 220.044 M272.379 222.255 C 272.158 222.836,272.052 223.385,272.143 223.476 C 272.233 223.567,272.499 223.092,272.733 222.420 C 273.253 220.928,272.939 220.782,272.379 222.255 M164.379 224.655 C 164.158 225.236,164.052 225.785,164.143 225.876 C 164.233 225.967,164.499 225.492,164.733 224.820 C 165.253 223.328,164.939 223.182,164.379 224.655 M270.379 227.455 C 270.158 228.036,270.052 228.585,270.143 228.676 C 270.233 228.767,270.499 228.292,270.733 227.620 C 271.253 226.128,270.939 225.982,270.379 227.455 M268.379 232.255 C 268.158 232.836,268.052 233.385,268.143 233.476 C 268.233 233.567,268.499 233.092,268.733 232.420 C 269.253 230.928,268.939 230.782,268.379 232.255 M206.218 232.500 C 206.368 232.995,206.655 233.576,206.856 233.791 C 207.057 234.006,207.019 233.601,206.772 232.891 C 206.265 231.438,205.797 231.108,206.218 232.500 M188.044 234.444 C 187.798 235.151,187.666 235.800,187.752 235.885 C 187.838 235.971,188.109 235.462,188.356 234.756 C 188.602 234.049,188.734 233.400,188.648 233.315 C 188.562 233.229,188.291 233.738,188.044 234.444 M208.218 237.700 C 208.368 238.195,208.655 238.776,208.856 238.991 C 209.057 239.206,209.019 238.801,208.772 238.091 C 208.265 236.638,207.797 236.308,208.218 237.700 M265.665 238.617 C 264.995 240.088,265.123 240.402,265.847 239.065 C 266.186 238.440,266.388 237.854,266.296 237.763 C 266.205 237.671,265.921 238.056,265.665 238.617 M102.218 244.100 C 102.368 244.595,102.655 245.176,102.856 245.391 C 103.057 245.606,103.019 245.201,102.772 244.491 C 102.265 243.038,101.797 242.708,102.218 244.100 M292.065 245.017 C 291.395 246.488,291.523 246.802,292.247 245.465 C 292.586 244.840,292.788 244.254,292.696 244.163 C 292.605 244.071,292.321 244.456,292.065 245.017 M182.065 249.017 C 181.395 250.488,181.523 250.802,182.247 249.465 C 182.586 248.840,182.788 248.254,182.696 248.163 C 182.605 248.071,182.321 248.456,182.065 249.017 M179.681 254.209 C 179.202 255.194,178.894 256.000,178.997 256.000 C 179.268 256.000,180.884 252.751,180.703 252.570 C 180.619 252.486,180.159 253.224,179.681 254.209 M285.681 259.009 C 285.202 259.994,284.894 260.800,284.997 260.800 C 285.268 260.800,286.884 257.551,286.703 257.370 C 286.619 257.286,286.159 258.024,285.681 259.009 M283.600 263.200 C 283.151 264.080,282.874 264.800,282.984 264.800 C 283.094 264.800,283.551 264.080,284.000 263.200 C 284.449 262.320,284.726 261.600,284.616 261.600 C 284.506 261.600,284.049 262.320,283.600 263.200 M173.600 266.400 C 173.151 267.280,172.874 268.000,172.984 268.000 C 173.094 268.000,173.551 267.280,174.000 266.400 C 174.449 265.520,174.726 264.800,174.616 264.800 C 174.506 264.800,174.049 265.520,173.600 266.400 M163.814 283.435 C 163.441 284.004,163.205 284.538,163.289 284.622 C 163.373 284.707,163.758 284.241,164.144 283.588 C 165.006 282.128,164.748 282.009,163.814 283.435 M234.360 289.000 C 235.034 290.305,235.588 291.028,235.585 290.600 C 235.583 290.380,235.214 289.750,234.764 289.200 C 234.221 288.536,234.085 288.469,234.360 289.000 M267.663 290.800 C 267.175 291.460,266.923 292.000,267.102 292.000 C 267.281 292.000,267.746 291.460,268.136 290.800 C 268.526 290.140,268.779 289.600,268.698 289.600 C 268.617 289.600,268.151 290.140,267.663 290.800 M236.364 291.933 C 236.580 292.336,237.071 292.921,237.455 293.233 C 237.887 293.584,237.790 293.304,237.201 292.500 C 236.151 291.065,235.757 290.798,236.364 291.933 M153.387 297.700 L 151.000 300.200 153.500 297.813 C 155.822 295.595,156.183 295.200,155.887 295.200 C 155.826 295.200,154.701 296.325,153.387 297.700 M240.783 296.900 C 241.764 297.945,242.619 298.800,242.683 298.800 C 242.984 298.800,242.666 298.441,240.900 296.783 L 239.000 295.000 240.783 296.900 M133.000 297.942 C 134.100 299.107,135.360 300.251,135.800 300.484 C 136.240 300.718,136.510 300.830,136.400 300.734 C 136.290 300.638,135.030 299.494,133.600 298.192 L 131.000 295.824 133.000 297.942 M243.600 299.620 C 244.987 300.561,245.778 300.835,244.800 300.036 C 244.250 299.586,243.620 299.217,243.400 299.215 C 243.180 299.213,243.270 299.396,243.600 299.620 M136.800 301.019 C 136.800 301.313,139.249 302.450,139.609 302.324 C 139.804 302.256,139.251 301.898,138.382 301.530 C 137.512 301.161,136.800 300.931,136.800 301.019 M147.200 301.832 C 145.990 302.351,145.270 302.777,145.600 302.779 C 146.311 302.783,149.600 301.336,149.600 301.020 C 149.600 300.899,149.555 300.820,149.500 300.845 C 149.445 300.869,148.410 301.314,147.200 301.832 " stroke="none" fill="#59beac" fill-rule="evenodd"></path><path id="path4" d="M262.378 297.100 L 261.000 298.600 262.500 297.222 C 263.896 295.938,264.184 295.600,263.878 295.600 C 263.812 295.600,263.137 296.275,262.378 297.100 " stroke="none" fill="#59beac" fill-rule="evenodd"></path></g></svg>