<svg width="151" height="141" viewBox="0 0 151 141" fill="none" xmlns="http://www.w3.org/2000/svg">
<g clip-path="url(#clip0_92_42)">
<path d="M147.023 -1.99457e-06L82.6596 47.5226L94.6285 19.5159L147.023 -1.99457e-06Z" fill="#E17726"/>
<path d="M4.12695 0.0561218L56.382 19.5194L67.7469 47.8927L4.12695 0.0561218Z" fill="#E27625"/>
<path d="M121.121 101.066L149.568 101.606L139.627 135.308L104.914 125.772L121.121 101.066Z" fill="#E27625"/>
<path d="M29.8789 101.066L46.025 125.772L11.3709 135.309L1.48906 101.606L29.8789 101.066Z" fill="#E27625"/>
<path d="M66.2012 40.6655L67.3643 78.1334L32.5771 76.5541L42.4719 61.6577L42.5973 61.5145L66.2012 40.6655Z" fill="#E27625"/>
<path d="M84.4379 40.2474L108.403 61.5157L108.527 61.6583L118.422 76.5547L83.6422 78.1334L84.4379 40.2474Z" fill="#E27625"/>
<path d="M47.0439 101.175L66.0389 115.943L43.9736 126.573L47.0439 101.175Z" fill="#E27625"/>
<path d="M103.959 101.173L106.966 126.574L84.9623 115.942L103.959 101.173Z" fill="#E27625"/>
<path d="M85.4481 114.551L107.776 125.34L87.0067 135.189L87.2223 128.679L85.4481 114.551Z" fill="#D5BFB2"/>
<path d="M65.5455 114.556L63.841 128.573L63.981 135.182L43.1627 125.34L65.5455 114.556Z" fill="#D5BFB2"/>
<path d="M59.0978 83.0236L64.9326 95.2597L45.0676 89.4527L59.0978 83.0236Z" fill="#233447"/>
<path d="M91.9016 83.0242L105.998 89.4527L86.068 95.258L91.9016 83.0242Z" fill="#233447"/>
<path d="M48.5621 101.05L45.3512 127.384L28.1404 101.626L48.5621 101.05Z" fill="#CC6228"/>
<path d="M102.439 101.05L122.861 101.626L105.586 127.385L102.439 101.05Z" fill="#CC6228"/>
<path d="M118.925 75.065L104.063 90.1795L92.6035 84.9542L87.1174 96.463L83.5209 76.6723L118.925 75.065Z" fill="#CC6228"/>
<path d="M32.0674 75.065L67.4785 76.6728L63.8814 96.463L58.3941 84.956L46.9959 90.1801L32.0674 75.065Z" fill="#CC6228"/>
<path d="M31.066 71.9633L47.8813 88.9897L48.4637 105.799L31.066 71.9633Z" fill="#E27525"/>
<path d="M119.951 71.9329L102.522 105.828L103.178 88.9897L119.951 71.9329Z" fill="#E27525"/>
<path d="M66.6564 73.0005L67.3332 77.2511L69.0055 87.8396L67.9303 120.363L62.8473 94.2366L62.8455 93.9664L66.6564 73.0005Z" fill="#E27525"/>
<path d="M84.3348 72.9414L88.1557 93.9664L88.1539 94.2366L83.058 120.428L82.8565 113.877L82.0613 87.6472L84.3348 72.9414Z" fill="#E27525"/>
<path d="M104.673 88.3132L104.104 102.917L86.365 116.708L82.7791 114.18L86.7986 93.5203L104.673 88.3132Z" fill="#F5841F"/>
<path d="M46.3889 88.3132L64.2014 93.5203L68.2209 114.18L64.635 116.708L46.8951 102.916L46.3889 88.3132Z" fill="#F5841F"/>
<path d="M39.7684 122.115L62.4629 132.845L62.3668 128.262L64.2652 126.599L86.7271 126.599L88.6947 128.257L88.5494 132.835L111.1 122.141L100.127 131.19L86.8584 140.283L64.0836 140.283L50.8238 131.153L39.7684 122.115Z" fill="#C0AC9D"/>
<path d="M83.8227 113.123L87.0312 115.385L88.9115 130.355L86.1904 128.062L64.8178 128.062L62.1482 130.401L63.967 115.386L67.1768 113.123L83.8227 113.123Z" fill="#161616"/>
<path d="M142.774 1.31552L150.5 24.4436L145.675 47.829L149.111 50.4734L144.461 54.0131L147.956 56.7061L143.329 60.9105L146.169 62.9633L138.631 71.7487L107.711 62.7651L107.443 62.6219L85.1615 43.8666L142.774 1.31552Z" fill="#763E1A"/>
<path d="M8.22617 1.31552L65.8391 43.8666L43.557 62.6219L43.2893 62.7651L12.3693 71.7487L4.83008 62.9633L7.66836 60.9123L3.04414 56.7061L6.53164 54.0166L1.8125 50.4664L5.37793 47.8202L0.500001 24.4448L8.22617 1.31552Z" fill="#763E1A"/>
<path d="M106.198 60.8006L138.96 70.3192L149.604 103.052L121.523 103.052L102.175 103.296L116.246 75.928L106.198 60.8006Z" fill="#F5841F"/>
<path d="M44.8016 60.8006L34.7522 75.928L48.8246 103.296L29.4857 103.052L1.45567 103.052L12.0395 70.3192L44.8016 60.8006Z" fill="#F5841F"/>
<path d="M96.2328 19.3598L87.0687 44.056L85.1246 77.4177L84.3805 87.8747L84.3219 114.587L66.6781 114.587L66.6207 87.9249L65.8742 77.4089L63.9289 44.056L54.7666 19.3593L96.2328 19.3598Z" fill="#F5841F"/>
</g>
<defs>
<clipPath id="clip0_92_42">
<rect width="150" height="140.323" fill="white" transform="translate(0.5)"/>
</clipPath>
</defs>
</svg>
