<svg width="356" height="265" viewBox="0 0 356 265" fill="none" xmlns="http://www.w3.org/2000/svg">
<path d="M355.647 232.878H0V233.056H355.647V232.878Z" fill="#EBEBEB"/>
<path d="M320.012 244.323H296.454V244.501H320.012V244.323Z" fill="#EBEBEB"/>
<path d="M235.595 246.257H229.414V246.435H235.595V246.257Z" fill="#EBEBEB"/>
<path d="M295.742 237.722H282.092V237.9H295.742V237.722Z" fill="#EBEBEB"/>
<path d="M68.0353 238.917H37.3145V239.094H68.0353V238.917Z" fill="#EBEBEB"/>
<path d="M78.8751 238.917H74.3726V239.094H78.8751V238.917Z" fill="#EBEBEB"/>
<path d="M160.148 241.919H93.5137V242.097H160.148V241.919Z" fill="#EBEBEB"/>
<path d="M168.577 201.154H31.2331C30.1571 201.152 29.1259 200.724 28.3658 199.962C27.6056 199.201 27.1787 198.169 27.1787 197.093V4.02593C27.1881 2.95616 27.6191 1.93328 28.3783 1.17948C29.1374 0.42568 30.1633 0.00183257 31.2331 0H168.577C169.654 0 170.687 0.427906 171.449 1.18958C172.211 1.95126 172.639 2.98432 172.639 4.06149V197.093C172.639 198.17 172.211 199.203 171.449 199.965C170.687 200.726 169.654 201.154 168.577 201.154ZM31.2331 0.14226C30.2043 0.144144 29.2183 0.554145 28.4915 1.28227C27.7647 2.0104 27.3565 2.99715 27.3565 4.02593V197.093C27.3565 198.121 27.7647 199.108 28.4915 199.836C29.2183 200.564 30.2043 200.974 31.2331 200.976H168.577C169.606 200.974 170.593 200.565 171.321 199.837C172.049 199.109 172.459 198.122 172.461 197.093V4.02593C172.459 2.99649 172.049 2.00976 171.321 1.28184C170.593 0.553914 169.606 0.14414 168.577 0.14226H31.2331Z" fill="#EBEBEB"/>
<path d="M322.437 201.154H185.086C184.009 201.152 182.977 200.724 182.216 199.963C181.455 199.201 181.026 198.169 181.024 197.093V4.02593C181.036 2.95551 181.468 1.93264 182.229 1.17904C182.989 0.425432 184.015 0.00181259 185.086 0H322.437C323.506 0.00370193 324.53 0.428377 325.287 1.18198C326.045 1.93558 326.475 2.95739 326.484 4.02593V197.093C326.484 198.167 326.058 199.198 325.3 199.96C324.541 200.721 323.512 201.15 322.437 201.154ZM185.086 0.14226C184.056 0.14414 183.07 0.553914 182.342 1.28184C181.614 2.00976 181.204 2.99649 181.202 4.02593V197.093C181.204 198.122 181.614 199.109 182.342 199.837C183.07 200.565 184.056 200.974 185.086 200.976H322.437C323.466 200.974 324.453 200.565 325.181 199.837C325.909 199.109 326.319 198.122 326.321 197.093V4.02593C326.319 2.99649 325.909 2.00976 325.181 1.28184C324.453 0.553914 323.466 0.14414 322.437 0.14226H185.086Z" fill="#EBEBEB"/>
<path d="M124.904 77.7798H70.0841V189.432H124.904V77.7798Z" fill="#EBEBEB"/>
<path d="M122.841 187.113V80.0991H72.1539V187.113H122.841Z" fill="#E0E0E0"/>
<path d="M98.0806 79.502H96.9141V188.273H98.0806V79.502Z" fill="#EBEBEB"/>
<path d="M126.169 76.1725H68.8178V81.9838H126.169V76.1725Z" fill="#EBEBEB"/>
<path d="M126.17 82.6309H68.8179V83.3208H126.17V82.6309Z" fill="#EBEBEB"/>
<path d="M126.17 84.189H68.8179V84.8789H126.17V84.189Z" fill="#EBEBEB"/>
<path d="M126.169 85.7534H68.8178V86.4434H126.169V85.7534Z" fill="#EBEBEB"/>
<path d="M126.169 87.3184H68.8178V88.0083H126.169V87.3184Z" fill="#EBEBEB"/>
<path d="M126.169 88.8834H68.8178V89.5734H126.169V88.8834Z" fill="#EBEBEB"/>
<path d="M126.17 90.4482H68.8179V91.1382H126.17V90.4482Z" fill="#EBEBEB"/>
<path d="M126.17 92.0059H68.8179V92.6958H126.17V92.0059Z" fill="#EBEBEB"/>
<path d="M126.17 93.5708H68.8179V94.2608H126.17V93.5708Z" fill="#EBEBEB"/>
<path d="M126.169 95.1357H68.8178V95.8257H126.169V95.1357Z" fill="#EBEBEB"/>
<path d="M126.169 96.7007H68.8178V97.3906H126.169V96.7007Z" fill="#EBEBEB"/>
<path d="M126.169 98.2656H68.8178V98.9556H126.169V98.2656Z" fill="#EBEBEB"/>
<path d="M126.17 99.8301H68.8179V100.52H126.17V99.8301Z" fill="#EBEBEB"/>
<path d="M126.17 101.388H68.8179V102.078H126.17V101.388Z" fill="#EBEBEB"/>
<path d="M126.17 102.953H68.8179V103.643H126.17V102.953Z" fill="#EBEBEB"/>
<path d="M126.169 104.518H68.8178V105.208H126.169V104.518Z" fill="#EBEBEB"/>
<path d="M126.17 106.082H68.8179V106.772H126.17V106.082Z" fill="#EBEBEB"/>
<path d="M126.17 107.647H68.8179V108.337H126.17V107.647Z" fill="#EBEBEB"/>
<path d="M126.17 109.205H68.8179V109.895H126.17V109.205Z" fill="#EBEBEB"/>
<path d="M189.809 77.7798H134.99V189.432H189.809V77.7798Z" fill="#EBEBEB"/>
<path d="M187.747 187.113V80.0991H137.06V187.113H187.747Z" fill="#E0E0E0"/>
<path d="M162.986 79.502H161.819V188.273H162.986V79.502Z" fill="#EBEBEB"/>
<path d="M191.075 76.1724H133.724V81.9836H191.075V76.1724Z" fill="#EBEBEB"/>
<path d="M191.075 82.6309H133.724V83.3208H191.075V82.6309Z" fill="#EBEBEB"/>
<path d="M191.075 84.189H133.724V84.8789H191.075V84.189Z" fill="#EBEBEB"/>
<path d="M191.075 85.7534H133.724V86.4434H191.075V85.7534Z" fill="#EBEBEB"/>
<path d="M191.075 87.3184H133.724V88.0083H191.075V87.3184Z" fill="#EBEBEB"/>
<path d="M191.075 88.8833H133.724V89.5732H191.075V88.8833Z" fill="#EBEBEB"/>
<path d="M191.075 90.4482H133.724V91.1382H191.075V90.4482Z" fill="#EBEBEB"/>
<path d="M191.075 92.0059H133.724V92.6958H191.075V92.0059Z" fill="#EBEBEB"/>
<path d="M191.075 93.5708H133.724V94.2608H191.075V93.5708Z" fill="#EBEBEB"/>
<path d="M191.075 95.1357H133.724V95.8257H191.075V95.1357Z" fill="#EBEBEB"/>
<path d="M191.075 96.7007H133.724V97.3906H191.075V96.7007Z" fill="#EBEBEB"/>
<path d="M191.075 98.2656H133.724V98.9556H191.075V98.2656Z" fill="#EBEBEB"/>
<path d="M191.075 99.8301H133.724V100.52H191.075V99.8301Z" fill="#EBEBEB"/>
<path d="M191.075 101.388H133.724V102.078H191.075V101.388Z" fill="#EBEBEB"/>
<path d="M191.075 102.953H133.724V103.643H191.075V102.953Z" fill="#EBEBEB"/>
<path d="M191.075 104.518H133.724V105.208H191.075V104.518Z" fill="#EBEBEB"/>
<path d="M191.075 106.082H133.724V106.772H191.075V106.082Z" fill="#EBEBEB"/>
<path d="M191.075 107.647H133.724V108.337H191.075V107.647Z" fill="#EBEBEB"/>
<path d="M191.075 109.205H133.724V109.895H191.075V109.205Z" fill="#EBEBEB"/>
<path d="M143.276 207.292H192.598C193.39 207.292 194.15 207.607 194.71 208.167C195.27 208.728 195.585 209.488 195.585 210.28V215.899H140.289V210.28C140.289 209.888 140.366 209.499 140.516 209.137C140.667 208.774 140.887 208.445 141.164 208.167C141.441 207.89 141.771 207.67 142.133 207.52C142.496 207.37 142.884 207.292 143.276 207.292Z" fill="#E0E0E0"/>
<path opacity="0.6" d="M143.276 207.292H157.502C158.295 207.292 159.055 207.607 159.615 208.167C160.175 208.728 160.49 209.488 160.49 210.28V215.899H140.289V210.28C140.289 209.888 140.366 209.499 140.516 209.137C140.667 208.774 140.887 208.445 141.164 208.167C141.441 207.89 141.771 207.67 142.133 207.52C142.496 207.37 142.884 207.292 143.276 207.292Z" fill="#F0F0F0"/>
<path d="M178.237 255.889H176.579L175.47 215.43H178.237V255.889Z" fill="#E0E0E0"/>
<path d="M141.847 255.889H140.182V215.43H142.949L141.847 255.889Z" fill="#E0E0E0"/>
<path d="M158.669 255.889H157.011V215.43H159.778L158.669 255.889Z" fill="#E0E0E0"/>
<path d="M195.065 255.889H193.401L192.298 215.43H195.065V255.889Z" fill="#E0E0E0"/>
<path d="M196.922 215.43H139.62C139.203 215.43 138.866 215.768 138.866 216.184V219.072C138.866 219.488 139.203 219.826 139.62 219.826H196.922C197.338 219.826 197.676 219.488 197.676 219.072V216.184C197.676 215.768 197.338 215.43 196.922 215.43Z" fill="#EBEBEB"/>
<path d="M82.0836 207.292H131.405C132.197 207.292 132.957 207.607 133.517 208.167C134.077 208.728 134.392 209.488 134.392 210.28V215.899H79.0961V210.28C79.0961 209.488 79.4109 208.728 79.9711 208.167C80.5314 207.607 81.2913 207.292 82.0836 207.292Z" fill="#E0E0E0"/>
<path opacity="0.6" d="M82.0836 207.292H96.3095C97.1018 207.292 97.8616 207.607 98.4219 208.167C98.9822 208.728 99.2969 209.488 99.2969 210.28V215.899H79.0961V210.28C79.0961 209.488 79.4109 208.728 79.9711 208.167C80.5314 207.607 81.2913 207.292 82.0836 207.292Z" fill="#F0F0F0"/>
<path d="M117.044 255.889H115.386L114.277 215.43H117.044V255.889Z" fill="#E0E0E0"/>
<path d="M80.6534 255.889H78.9961V215.43H81.7559L80.6534 255.889Z" fill="#E0E0E0"/>
<path d="M97.4757 255.889H95.8184V215.43H98.5853L97.4757 255.889Z" fill="#E0E0E0"/>
<path d="M133.873 255.889H132.216L131.106 215.43H133.873V255.889Z" fill="#E0E0E0"/>
<path d="M135.729 215.43H78.4273C78.0109 215.43 77.6733 215.768 77.6733 216.184V219.072C77.6733 219.488 78.0109 219.826 78.4273 219.826H135.729C136.146 219.826 136.483 219.488 136.483 219.072V216.184C136.483 215.768 136.146 215.43 135.729 215.43Z" fill="#EBEBEB"/>
<path d="M177.824 265C253.991 265 315.737 261.395 315.737 256.948C315.737 252.501 253.991 248.896 177.824 248.896C101.656 248.896 39.9106 252.501 39.9106 256.948C39.9106 261.395 101.656 265 177.824 265Z" fill="#F5F5F5"/>
<path d="M266.649 46.4191C268.257 39.6059 264.037 32.7792 257.224 31.1711C250.411 29.5631 243.584 33.7826 241.976 40.5958C240.368 47.409 244.588 54.2357 251.401 55.8438C258.214 57.4518 265.041 53.2322 266.649 46.4191Z" fill="#60D49E"/>
<path opacity="0.4" d="M265.187 44.4826C266.14 38.5907 262.135 33.0424 256.243 32.0901C250.351 31.1379 244.803 35.1423 243.851 41.0343C242.898 46.9263 246.903 52.4746 252.795 53.4268C258.687 54.3791 264.235 50.3746 265.187 44.4826Z" fill="white"/>
<path d="M253.812 44.3559C253.689 44.3556 253.569 44.3237 253.463 44.2635L248.484 41.4183C248.403 41.3716 248.332 41.3093 248.274 41.2351C248.217 41.1608 248.175 41.076 248.151 40.9856C248.126 40.8951 248.12 40.8007 248.132 40.7077C248.144 40.6147 248.174 40.5251 248.221 40.4438C248.268 40.3626 248.33 40.2913 248.404 40.2341C248.478 40.1769 248.563 40.1348 248.654 40.1104C248.744 40.086 248.839 40.0796 248.931 40.0916C249.024 40.1037 249.114 40.1339 249.195 40.1806L253.129 42.407V36.0907C253.129 35.902 253.204 35.7211 253.337 35.5877C253.471 35.4543 253.651 35.3794 253.84 35.3794C254.029 35.3794 254.21 35.4543 254.343 35.5877C254.476 35.7211 254.551 35.902 254.551 36.0907V43.6233C254.552 43.7486 254.519 43.8719 254.457 43.9806C254.394 44.0892 254.304 44.1795 254.196 44.2421C254.081 44.3161 253.948 44.3556 253.812 44.3559Z" fill="#60D49E"/>
<path opacity="0.4" d="M266.649 46.4191C268.257 39.6059 264.037 32.7792 257.224 31.1711C250.411 29.5631 243.584 33.7826 241.976 40.5958C240.368 47.409 244.588 54.2357 251.401 55.8438C258.214 57.4518 265.041 53.2322 266.649 46.4191Z" fill="white"/>
<path d="M68.206 235.716C68.206 235.716 69.3014 227.7 74.4298 226.818C79.5583 225.936 77.9863 222.066 79.3449 220.565C80.7034 219.065 84.1674 223.489 81.18 227.778C78.1926 232.067 80.6323 230.723 79.3449 234.713C78.0574 238.703 67.7365 242.367 68.206 235.716Z" fill="#263238"/>
<path opacity="0.2" d="M68.206 235.716C68.206 235.716 69.3014 227.7 74.4298 226.818C79.5583 225.936 77.9863 222.066 79.3449 220.565C80.7034 219.065 84.1674 223.489 81.18 227.778C78.1926 232.067 80.6323 230.723 79.3449 234.713C78.0574 238.703 67.7365 242.367 68.206 235.716Z" fill="white"/>
<path d="M69.9053 241.193H69.7773C69.6907 241.156 69.6216 241.088 69.5844 241.002C69.5473 240.915 69.545 240.818 69.5781 240.73C69.5781 240.645 72.7647 232.195 69.7061 219.392C68.755 215.707 67.4225 212.131 65.73 208.722C62.7639 202.32 60.2103 196.744 64.0016 186.38C65.1681 183.172 66.3844 180.185 67.558 177.29C71.904 166.621 75.3325 158.185 71.712 150.382C71.675 150.295 71.6729 150.197 71.706 150.108C71.739 150.019 71.8048 149.947 71.8898 149.905C71.9757 149.867 72.0733 149.864 72.1613 149.897C72.2493 149.93 72.3205 149.997 72.3593 150.083C76.1078 158.163 72.6296 166.727 68.2195 177.56C67.0388 180.448 65.8296 183.428 64.6631 186.622C60.9714 196.708 63.3543 201.879 66.363 208.423C68.0827 211.858 69.4414 215.463 70.4174 219.178C73.5329 232.259 70.2965 240.88 70.2609 240.965C70.2328 241.035 70.1834 241.095 70.1197 241.136C70.0559 241.177 69.9809 241.197 69.9053 241.193Z" fill="#263238"/>
<path d="M71.3785 239.322C71.3785 239.322 74.6931 234.343 69.9061 231.754C65.1191 229.165 64.1659 231.256 61.2069 229.407C58.248 227.557 56.0003 223.09 55.5166 225.95C55.0329 228.809 58.4329 230.445 57.2237 231.754C56.0145 233.063 65.2471 241.57 71.3785 239.322Z" fill="#263238"/>
<path d="M73.7753 154.209C73.7753 154.209 76.215 144.165 68.8745 144.542C61.5339 144.919 70.3397 153.433 73.7753 154.209Z" fill="#263238"/>
<path d="M68.0204 162.239C68.0204 162.239 65.1254 153.518 60.0823 155.837C55.0392 158.156 62.8564 162.815 68.0204 162.239Z" fill="#263238"/>
<path d="M76.8975 162.303C76.8975 162.303 75.5461 155.261 81.0515 154.678C86.5569 154.095 84.6009 160.532 76.8975 162.303Z" fill="#263238"/>
<path d="M74.394 177.112C74.394 177.112 81.2651 169.921 84.3521 174.623C87.4391 179.324 79.2094 180.967 74.394 177.112Z" fill="#263238"/>
<path d="M61.207 176.956C61.207 176.956 58.9379 166.108 53.2333 169.999C47.5287 173.89 56.0856 178.471 61.207 176.956Z" fill="#263238"/>
<path d="M57.2018 193.067C57.2018 193.067 60.7583 181.643 52.6282 183.55C44.4981 185.456 51.2127 190.847 57.2018 193.067Z" fill="#263238"/>
<path d="M70.1049 196.012C70.1049 196.012 76.3714 187.298 81.8769 189.461C87.3823 191.623 83.6978 200.08 70.1049 196.012Z" fill="#263238"/>
<path d="M65.2676 214.59C65.2676 214.59 58.3253 201.965 53.4245 206.802C48.5237 211.638 57.6496 217.549 65.2676 214.59Z" fill="#263238"/>
<path d="M73.7751 213.139C73.7751 213.139 71.4065 203.095 77.3316 203.451C83.2567 203.807 82.1826 210.137 73.7751 213.139Z" fill="#263238"/>
<g opacity="0.2">
<path opacity="0.2" d="M73.7748 154.209C73.7748 154.209 76.2145 144.165 68.8739 144.542C61.5334 144.919 70.3392 153.433 73.7748 154.209Z" fill="white"/>
<path opacity="0.2" d="M68.0204 162.239C68.0204 162.239 65.1254 153.518 60.0823 155.837C55.0392 158.156 62.8564 162.815 68.0204 162.239Z" fill="white"/>
<path opacity="0.2" d="M76.8975 162.303C76.8975 162.303 75.5461 155.261 81.0515 154.678C86.5569 154.095 84.6009 160.532 76.8975 162.303Z" fill="white"/>
<path opacity="0.2" d="M74.3935 177.112C74.3935 177.112 81.2646 169.921 84.3516 174.623C87.4386 179.324 79.209 180.967 74.3935 177.112Z" fill="white"/>
<path opacity="0.2" d="M61.206 176.956C61.206 176.956 58.9369 166.108 53.2324 169.999C47.5278 173.89 56.0847 178.471 61.206 176.956Z" fill="white"/>
<path opacity="0.2" d="M57.2018 193.067C57.2018 193.067 60.7583 181.643 52.6282 183.55C44.4981 185.456 51.2127 190.847 57.2018 193.067Z" fill="white"/>
<path opacity="0.2" d="M70.1049 196.012C70.1049 196.012 76.3714 187.298 81.8769 189.461C87.3823 191.623 83.6978 200.08 70.1049 196.012Z" fill="white"/>
<path opacity="0.2" d="M65.2676 214.59C65.2676 214.59 58.3253 201.965 53.4245 206.802C48.5237 211.638 57.6496 217.549 65.2676 214.59Z" fill="white"/>
<path opacity="0.2" d="M73.7746 213.139C73.7746 213.139 71.406 203.095 77.3311 203.451C83.2562 203.807 82.1821 210.137 73.7746 213.139Z" fill="white"/>
</g>
<path d="M71.6556 167.866H71.5844C71.4912 167.845 71.4097 167.789 71.3568 167.709C71.3568 167.652 68.092 162.51 65.8799 161.407C65.8324 161.39 65.7891 161.364 65.7527 161.329C65.7163 161.294 65.6877 161.252 65.6688 161.206C65.6498 161.159 65.641 161.109 65.6428 161.059C65.6446 161.009 65.6571 160.959 65.6794 160.914C65.7017 160.869 65.7333 160.829 65.7721 160.797C65.8109 160.765 65.8561 160.742 65.9046 160.729C65.9531 160.715 66.0039 160.713 66.0536 160.72C66.1033 160.728 66.1507 160.747 66.1928 160.774C68.2769 161.805 71.0012 165.846 71.7623 167.019C75.5962 164.302 78.2137 159.7 78.2422 159.65C78.2644 159.609 78.2947 159.573 78.3313 159.543C78.368 159.514 78.4101 159.492 78.4553 159.48C78.5004 159.467 78.5477 159.464 78.5942 159.47C78.6406 159.476 78.6854 159.491 78.7258 159.515C78.8064 159.563 78.8655 159.64 78.8907 159.73C78.9158 159.82 78.9052 159.916 78.861 159.999C78.7472 160.205 76.0158 165.042 71.8547 167.823C71.7934 167.855 71.7246 167.87 71.6556 167.866Z" fill="#263238"/>
<path d="M66.0362 182.006H65.9935C65.9439 182 65.896 181.984 65.8531 181.958C65.8102 181.932 65.7732 181.898 65.7446 181.857C65.709 181.8 61.74 176.223 57.0454 173.94C56.9606 173.899 56.8956 173.825 56.8649 173.736C56.8343 173.646 56.8403 173.548 56.8818 173.463C56.9234 173.379 56.9969 173.314 57.0862 173.283C57.1756 173.252 57.2735 173.258 57.3584 173.3C61.6262 175.37 65.1827 179.879 66.0931 181.124C72.0467 176.045 79.9278 175.612 80.006 175.604C80.0532 175.601 80.1007 175.606 80.1455 175.622C80.1902 175.637 80.2313 175.662 80.2661 175.694C80.3009 175.726 80.3286 175.765 80.3475 175.808C80.3664 175.852 80.3761 175.899 80.3759 175.946C80.3788 175.992 80.3724 176.039 80.357 176.083C80.3417 176.126 80.3178 176.167 80.2866 176.201C80.2555 176.236 80.2178 176.264 80.1757 176.283C80.1336 176.303 80.088 176.314 80.0416 176.316C79.9634 176.316 72.0609 176.757 66.2709 181.914C66.2066 181.972 66.1231 182.005 66.0362 182.006Z" fill="#263238"/>
<path d="M63.2049 200.315C63.1341 200.318 63.0642 200.298 63.0057 200.258C58.3041 197.072 54.2141 188.536 54.0434 188.166C54.023 188.124 54.0113 188.078 54.0088 188.031C54.0064 187.984 54.0133 187.937 54.0292 187.892C54.045 187.848 54.0696 187.807 54.1013 187.772C54.1331 187.738 54.1714 187.709 54.2141 187.69C54.3001 187.65 54.3981 187.646 54.4871 187.678C54.5761 187.71 54.6492 187.775 54.6907 187.86C54.6907 187.946 58.7451 196.332 63.2262 199.526C64.6061 198.594 72.3379 193.551 78.5333 192.932C78.58 192.927 78.6272 192.932 78.6721 192.945C78.717 192.959 78.7589 192.981 78.7952 193.011C78.8315 193.041 78.8616 193.077 78.8838 193.119C78.906 193.16 78.9198 193.205 78.9245 193.252C78.9292 193.299 78.9246 193.346 78.911 193.391C78.8975 193.436 78.8752 193.478 78.8455 193.514C78.8158 193.55 78.7792 193.58 78.7378 193.602C78.6965 193.625 78.6511 193.638 78.6044 193.643C72.1032 194.298 63.5107 200.194 63.4254 200.258C63.3593 200.299 63.2825 200.319 63.2049 200.315Z" fill="#263238"/>
<path d="M69.9058 218.474C69.8549 218.474 69.8045 218.463 69.758 218.442C69.7115 218.421 69.6698 218.391 69.6355 218.354C66.8681 215.505 63.2971 213.57 59.4 212.805C59.3533 212.796 59.309 212.777 59.2696 212.75C59.2302 212.723 59.1965 212.688 59.1704 212.648C59.1443 212.608 59.1263 212.564 59.1175 212.517C59.1087 212.47 59.1092 212.422 59.119 212.375C59.1288 212.328 59.1477 212.284 59.1747 212.245C59.2016 212.205 59.236 212.172 59.276 212.145C59.316 212.119 59.3607 212.101 59.4076 212.093C59.4545 212.084 59.5027 212.084 59.5494 212.094C63.492 212.878 67.1136 214.814 69.9556 217.656C72.9857 215.266 76.5351 206.767 76.5706 206.674C76.6074 206.586 76.6776 206.517 76.7656 206.481C76.8536 206.445 76.9524 206.445 77.0401 206.482C77.1278 206.519 77.1973 206.589 77.2334 206.677C77.2694 206.765 77.2689 206.864 77.2322 206.951C77.0757 207.328 73.3556 216.198 70.1192 218.432C70.0541 218.467 69.9796 218.482 69.9058 218.474Z" fill="#263238"/>
<path d="M70.8661 238.127C70.8661 238.127 73.7113 233.603 76.9193 232.963C80.1272 232.323 81.5142 228.617 82.7021 230.829C83.89 233.041 80.618 240.417 70.8661 238.127Z" fill="#263238"/>
<path d="M85.618 255.888H54.5842L52.5073 236.74H87.695L85.618 255.888Z" fill="#A4D47C"/>
<path d="M88.4207 240.367H51.7819L51.3124 236.313H88.8901L88.4207 240.367Z" fill="#5BAE81"/>
<path opacity="0.3" d="M88.4207 240.367H51.7819L51.3124 236.313H88.8901L88.4207 240.367Z" fill="white"/>
<path d="M296.403 70.8594H210.521V255.889H296.403V70.8594Z" fill="#A4D47C"/>
<path opacity="0.2" d="M293.665 70.8594H210.521V255.889H293.665V70.8594Z" fill="white"/>
<path d="M239.308 81.2515H221.326V151.449H239.308V81.2515Z" fill="#60D49E"/>
<path opacity="0.7" d="M237.643 81.2515H221.326V151.449H237.643V81.2515Z" fill="white"/>
<path d="M227.571 171.117C227.571 171.734 227.388 172.338 227.045 172.852C226.702 173.365 226.214 173.765 225.644 174.002C225.073 174.238 224.445 174.3 223.84 174.179C223.234 174.059 222.677 173.761 222.241 173.325C221.804 172.888 221.507 172.332 221.386 171.726C221.266 171.12 221.328 170.492 221.564 169.922C221.8 169.351 222.2 168.864 222.714 168.52C223.227 168.177 223.831 167.994 224.449 167.994C224.859 167.993 225.266 168.073 225.645 168.23C226.024 168.387 226.369 168.617 226.659 168.907C226.949 169.197 227.179 169.541 227.336 169.921C227.492 170.3 227.572 170.706 227.571 171.117Z" fill="#60D49E"/>
<path d="M227.571 174.239C229.296 174.239 230.694 172.841 230.694 171.117C230.694 169.392 229.296 167.994 227.571 167.994C225.847 167.994 224.449 169.392 224.449 171.117C224.449 172.841 225.847 174.239 227.571 174.239Z" fill="#263238"/>
<path opacity="0.8" d="M227.571 174.239C229.296 174.239 230.694 172.841 230.694 171.117C230.694 169.392 229.296 167.994 227.571 167.994C225.847 167.994 224.449 169.392 224.449 171.117C224.449 172.841 225.847 174.239 227.571 174.239Z" fill="white"/>
<path d="M182.803 129.719C180.565 128.641 178.404 127.407 176.338 126.028L175.719 120.444L175.143 115.209C179.289 116.191 188.522 123.403 190.016 126.59C191.097 128.873 191.268 133.653 182.803 129.719Z" fill="#60D49E"/>
<path d="M155.724 256.067H149.841C149.745 256.066 149.651 256.099 149.576 256.16C149.5 256.221 149.449 256.306 149.429 256.401L148.476 260.711C148.456 260.803 148.455 260.899 148.472 260.991C148.489 261.084 148.525 261.172 148.576 261.251C148.628 261.329 148.695 261.397 148.773 261.45C148.851 261.502 148.938 261.539 149.031 261.558H149.187C151.086 261.558 152.473 261.408 154.877 261.408C156.35 261.408 160.795 261.565 162.823 261.565C164.85 261.565 165.12 259.559 164.295 259.374C160.561 258.556 157.751 257.432 156.556 256.358C156.327 256.157 156.028 256.053 155.724 256.067Z" fill="#263238"/>
<path d="M180.669 255.91H174.786C174.69 255.911 174.596 255.944 174.522 256.005C174.447 256.066 174.394 256.15 174.374 256.244L173.42 260.555C173.401 260.646 173.399 260.741 173.416 260.833C173.433 260.925 173.468 261.013 173.518 261.092C173.569 261.17 173.635 261.238 173.712 261.291C173.79 261.344 173.876 261.382 173.968 261.401C174.02 261.408 174.073 261.408 174.125 261.401C176.031 261.401 177.418 261.259 179.815 261.259C181.287 261.259 185.726 261.408 187.76 261.408C189.794 261.408 190.058 259.402 189.225 259.217C185.491 258.407 182.681 257.276 181.487 256.202C181.261 256.003 180.968 255.899 180.669 255.91Z" fill="#263238"/>
<path d="M152.608 147.011H178.307C180.754 160.355 187.597 214.292 182.113 256.372L173.407 256.643C173.407 256.643 175.021 192.719 167.339 172.07C166.45 183.123 165.404 194.881 164.494 201.14C162.253 216.54 157.317 256.621 157.317 256.621H148.461C148.461 256.621 150.425 217.955 151.264 202.819C152.174 186.409 152.573 150.382 152.608 147.011Z" fill="#263238"/>
<path opacity="0.2" d="M148.461 256.643H157.317C157.317 256.643 162.253 216.533 164.494 201.162C165.404 194.91 166.45 183.152 167.339 172.098C168.593 175.719 169.545 179.438 170.184 183.216C174.772 207.99 173.378 256.671 173.378 256.671L182.077 256.557C187.568 214.477 180.726 160.284 178.279 147.345H152.608C152.573 150.425 152.181 186.594 151.264 203.025C150.425 218.133 148.461 256.643 148.461 256.643Z" fill="white"/>
<path opacity="0.2" d="M167.339 172.07C168.593 175.691 169.544 179.41 170.184 183.188C170.895 173.358 168.05 162.923 168.05 162.923L167.339 172.07Z" fill="black"/>
<path d="M178.307 147.317H152.608C152.53 142.181 152.136 137.054 151.427 131.967C151.036 129.186 150.51 126.277 149.813 123.431C149.303 121.317 148.664 119.236 147.899 117.2C147.899 117.2 159.28 112.541 175.149 115.223C177.162 125.805 178.219 136.546 178.307 147.317Z" fill="#60D49E"/>
<path d="M160.347 150.183L176.387 150.19L176.145 147.032L160.347 147.224V150.183Z" fill="black"/>
<path d="M177.184 150.19H178.876L178.307 147.011L176.935 147.025L177.184 150.19Z" fill="black"/>
<path d="M159.551 147.239L152.608 147.317V150.184H159.551V147.239Z" fill="black"/>
<path d="M171.252 146.819C171.052 146.641 166.614 146.705 166.272 147.103C166.272 147.103 166.102 150.119 166.308 150.382C166.514 150.645 170.768 150.276 171.166 150.261C171.564 150.247 171.422 146.996 171.252 146.819ZM170.761 149.97C170.426 149.97 166.941 150.283 166.77 150.062C166.674 149.167 166.662 148.264 166.735 147.366C167.005 147.046 170.654 146.989 170.818 147.139C170.981 147.288 171.088 149.955 170.761 149.97Z" fill="white"/>
<path d="M170.476 148.014H169.601C169.52 148.016 169.443 148.049 169.384 148.105C169.326 148.162 169.292 148.239 169.288 148.32C169.285 148.365 169.292 148.41 169.307 148.453C169.323 148.495 169.347 148.534 169.379 148.566C169.411 148.598 169.449 148.623 169.491 148.64C169.533 148.656 169.578 148.664 169.623 148.662L170.498 148.626C170.542 148.624 170.585 148.614 170.624 148.594C170.664 148.575 170.699 148.548 170.728 148.515C170.757 148.481 170.778 148.443 170.791 148.4C170.804 148.358 170.808 148.314 170.803 148.27C170.787 148.196 170.745 148.13 170.686 148.084C170.626 148.037 170.552 148.012 170.476 148.014Z" fill="white"/>
<path opacity="0.2" d="M151.428 131.968C151.036 129.186 150.51 126.277 149.813 123.432C150.13 123.199 150.477 123.01 150.844 122.87C150.844 122.87 153.32 127.963 151.428 131.968Z" fill="black"/>
<path d="M147.9 117.187C142.657 119.676 135.509 134.969 136.967 140.147C138.425 145.325 151.264 152.822 151.264 152.822L147.238 156.72C147.238 156.72 150.489 159.48 151.954 159.16C153.419 158.84 155.098 155.262 154.991 153.47C154.885 151.677 152.644 150.184 152.644 150.184C152.644 150.184 143.525 140.439 143.34 138.184C142.892 132.757 149.977 123.958 149.977 123.958L147.9 117.187Z" fill="#B97964"/>
<path d="M147.9 117.187C144.934 117.77 135.936 129.592 136.775 139.237L143.959 138.205C143.959 138.205 146.093 130.943 150.51 126.547C150.51 126.547 151.513 123.88 150.233 119.569C149.756 117.948 147.9 117.187 147.9 117.187Z" fill="#60D49E"/>
<path d="M136.277 138.852L144.443 137.814V138.852L136.277 140.801V138.852Z" fill="#60D49E"/>
<path opacity="0.2" d="M136.277 138.852L144.443 137.814V138.852L136.277 140.801V138.852Z" fill="white"/>
<path opacity="0.2" d="M182.803 129.72C180.564 128.641 178.404 127.407 176.337 126.028L175.718 120.444C177.205 121.255 182.682 124.62 182.803 129.72Z" fill="black"/>
<path d="M185.065 124.235C185.065 124.235 175.277 123.054 173.499 123.346C171.721 123.638 167.865 127.031 167.716 127.152C167.567 127.272 170.419 130.921 171.024 130.793C171.628 130.665 174.765 127.457 174.85 127.152C174.936 126.846 175.106 126.341 175.106 126.341L184.424 129.342C184.424 129.342 186.501 126.262 185.065 124.235Z" fill="#B97964"/>
<path d="M174.217 123.346C174.822 124.314 175.138 125.434 175.128 126.575H176.116C176.367 126.095 176.516 125.569 176.554 125.03C176.592 124.49 176.518 123.948 176.337 123.438L174.217 123.346Z" fill="#60D49E"/>
<path opacity="0.2" d="M174.217 123.346C174.822 124.314 175.138 125.434 175.128 126.575H176.116C176.367 126.095 176.516 125.569 176.554 125.03C176.592 124.49 176.518 123.948 176.337 123.438L174.217 123.346Z" fill="black"/>
<path d="M176.671 123.673C176.671 124.036 176.031 124.278 175.313 124.221C174.594 124.164 174.025 123.83 174.054 123.51C174.082 123.19 174.687 122.905 175.412 122.962C176.138 123.019 176.7 123.318 176.671 123.673Z" fill="#263238"/>
<path d="M176.337 123.417C176.337 123.68 175.875 123.865 175.341 123.822C174.808 123.78 174.395 123.531 174.417 123.267C174.438 123.004 174.886 122.826 175.413 122.869C175.939 122.912 176.359 123.154 176.337 123.417Z" fill="#60D49E"/>
<path opacity="0.7" d="M176.337 123.417C176.337 123.68 175.875 123.865 175.341 123.822C174.808 123.78 174.395 123.531 174.417 123.267C174.438 123.004 174.886 122.826 175.413 122.869C175.939 122.912 176.359 123.154 176.337 123.417Z" fill="white"/>
<path d="M184.189 129.748L185.377 123.652L186.345 124.022L186.01 130.438L184.189 129.748Z" fill="#60D49E"/>
<path opacity="0.2" d="M184.189 129.748L185.377 123.652L186.345 124.022L186.01 130.438L184.189 129.748Z" fill="white"/>
<path d="M153.774 117.186C153.774 117.186 154.841 114.476 159.956 113.587C165.07 112.698 170.682 115.045 172.048 116.752L167.659 117.186L165.433 122.03L160.375 117.713L153.774 117.186Z" fill="#60D49E"/>
<path opacity="0.2" d="M153.774 117.186C153.774 117.186 154.841 114.476 159.956 113.587C165.07 112.698 170.682 115.045 172.048 116.752L167.659 117.186L165.433 122.03L160.375 117.713L153.774 117.186Z" fill="white"/>
<path d="M156.535 115.693C157.516 116.582 159.095 116.966 160.603 117.115L165.198 121.383L166.543 116.717C166.543 116.717 168.285 116.098 167.524 114.967C165.39 114.619 164.373 113.623 163.968 112.357C163.733 111.571 163.661 110.746 163.754 109.931C163.786 109.475 163.845 109.022 163.932 108.573L156.784 103.281C157.701 106.731 158.846 113.161 156.535 115.693Z" fill="#B97964"/>
<path opacity="0.2" d="M158.413 106.602C158.697 110.87 162.218 112.072 163.946 112.292C163.712 111.507 163.64 110.682 163.733 109.867L158.413 106.602Z" fill="black"/>
<path d="M170.938 94.2327C170.938 94.2327 171.756 99.7239 168.214 102.292C164.672 104.859 164.658 92.4331 164.658 92.4331L170.938 94.2327Z" fill="#263238"/>
<path d="M157.907 107.598C158.649 108.696 159.73 109.52 160.986 109.944C162.241 110.368 163.601 110.368 164.856 109.945C166.492 109.425 167.87 108.304 168.712 106.808C168.825 106.604 168.932 106.391 169.032 106.168C170.774 102.085 171.329 94.9511 167.019 92.2837C165.546 91.3577 163.766 91.0541 162.07 91.4396C160.373 91.825 158.899 92.8679 157.971 94.3394C157.416 95.2089 157.079 96.1996 156.989 97.2272C156.484 101.993 155.951 104.774 157.907 107.598Z" fill="#B97964"/>
<path d="M163.968 99.774C163.875 100.151 164.046 100.485 164.302 100.549C164.558 100.613 164.814 100.315 164.878 99.9305C164.942 99.5464 164.793 99.2192 164.544 99.1552C164.295 99.0911 164.039 99.3899 163.968 99.774Z" fill="#263238"/>
<path d="M168.321 100.52C168.229 100.897 168.407 101.232 168.656 101.289C168.904 101.345 169.168 101.054 169.232 100.67C169.296 100.286 169.146 99.9585 168.897 99.8944C168.648 99.8304 168.385 100.151 168.321 100.52Z" fill="#263238"/>
<path d="M166.905 100.471C167.16 101.727 167.588 102.94 168.178 104.077C167.882 104.222 167.558 104.3 167.229 104.306C166.9 104.312 166.573 104.246 166.272 104.113L166.905 100.471Z" fill="#A24E3F"/>
<path d="M162.887 98.1594C162.927 98.1709 162.969 98.1723 163.01 98.1637C163.051 98.155 163.089 98.1364 163.121 98.1096C163.324 97.9057 163.572 97.753 163.846 97.664C164.119 97.5749 164.409 97.5521 164.693 97.5974C164.723 97.6048 164.753 97.6062 164.783 97.6016C164.813 97.597 164.842 97.5864 164.868 97.5705C164.894 97.5546 164.916 97.5337 164.934 97.509C164.951 97.4843 164.964 97.4563 164.971 97.4267C164.978 97.3982 164.98 97.3685 164.975 97.3394C164.971 97.3102 164.961 97.2823 164.946 97.2571C164.931 97.2319 164.91 97.21 164.887 97.1927C164.863 97.1754 164.836 97.1631 164.807 97.1564C164.45 97.0913 164.083 97.1129 163.737 97.2193C163.39 97.3258 163.074 97.514 162.815 97.7681C162.773 97.812 162.749 97.8706 162.749 97.9317C162.749 97.9928 162.773 98.0515 162.815 98.0953C162.835 98.1207 162.859 98.1424 162.887 98.1594Z" fill="#263238"/>
<path d="M162.602 104.206C163.166 104.242 163.712 104.412 164.197 104.701C164.682 104.99 165.091 105.391 165.39 105.87C165.404 105.899 165.406 105.931 165.397 105.961C165.388 105.992 165.368 106.017 165.341 106.034C165.328 106.042 165.313 106.048 165.298 106.051C165.283 106.053 165.267 106.052 165.253 106.048C165.238 106.044 165.224 106.037 165.212 106.027C165.2 106.017 165.191 106.005 165.184 105.991C164.9 105.552 164.517 105.185 164.067 104.919C163.616 104.654 163.11 104.497 162.588 104.462C162.557 104.46 162.528 104.446 162.507 104.424C162.486 104.401 162.474 104.372 162.474 104.341C162.476 104.31 162.489 104.281 162.512 104.26C162.534 104.239 162.564 104.227 162.595 104.227L162.602 104.206Z" fill="#263238"/>
<path d="M170.448 99.3401C170.489 99.3542 170.534 99.3542 170.576 99.3401C170.633 99.3234 170.682 99.2854 170.713 99.2338C170.743 99.1823 170.753 99.121 170.739 99.0627C170.646 98.7083 170.467 98.382 170.219 98.1118C169.972 97.8417 169.662 97.6359 169.317 97.512C169.288 97.5033 169.258 97.5005 169.227 97.5037C169.197 97.5069 169.168 97.516 169.142 97.5306C169.115 97.5452 169.092 97.5649 169.073 97.5886C169.054 97.6122 169.041 97.6394 169.032 97.6685C169.017 97.727 169.024 97.7892 169.053 97.8422C169.083 97.8952 169.131 97.9349 169.189 97.953C169.456 98.06 169.695 98.2284 169.885 98.4446C170.075 98.6609 170.212 98.9189 170.284 99.1978C170.299 99.2323 170.321 99.263 170.35 99.2877C170.378 99.3123 170.412 99.3302 170.448 99.3401Z" fill="#263238"/>
<path d="M164.067 89.5668C163.498 89.4885 162.929 89.4245 162.36 89.396C160.708 89.2424 159.047 89.5737 157.58 90.3492C154.287 92.3052 154.856 97.3056 155.283 100.549C155.844 104.86 157.537 106.809 157.537 106.809C156.513 104.753 156.826 100.748 157.488 100.649C158.149 100.549 158.106 101.317 158.106 101.317C159.593 100.393 160.952 97.7609 160.468 95.9257C160.112 94.5031 161.698 93.4647 163.029 94.1262L163.434 94.3253L164.067 94.617V89.5668Z" fill="#263238"/>
<path d="M154.287 100.755C154.456 101.329 154.736 101.864 155.112 102.329C155.488 102.794 155.952 103.18 156.478 103.465C157.9 104.227 158.939 103.046 158.846 101.531C158.747 100.186 157.914 98.1307 156.35 97.9743C156.004 97.9467 155.658 98.0074 155.343 98.1506C155.027 98.2938 154.754 98.5149 154.547 98.7931C154.341 99.0712 154.209 99.3973 154.163 99.7406C154.118 100.084 154.16 100.433 154.287 100.755Z" fill="#B97964"/>
<path d="M165.973 93.6638C165.66 94.2115 166.442 95.9755 164.671 95.5558C162.9 95.1362 162.779 95.883 161.527 97.0993C160.276 98.3157 157.729 96.4663 157.729 96.4663L154.955 96.8291C154.955 96.8291 152.921 95.0081 154.194 94.0265C155.467 93.045 155.745 91.6508 156.52 90.0077C157.295 88.3646 160.752 86.2308 164.415 88.7274C164.415 88.7274 166.364 88.0588 167.225 88.5425C167.868 89.0075 168.396 89.6133 168.768 90.3136C168.887 90.1679 169.035 90.0493 169.203 89.9658C169.371 89.8824 169.555 89.8361 169.742 89.83C169.93 89.8239 170.117 89.8582 170.29 89.9306C170.463 90.003 170.618 90.1118 170.746 90.2496C171.742 91.2881 170.952 95.001 171.806 95.9399C172.659 96.8788 170.746 98.024 170.746 98.024C170.746 98.024 169.245 97.6684 169.245 96.5659C169.245 94.6169 168.96 93.9198 168.007 93.5642C167.83 93.504 167.639 93.5011 167.46 93.556C167.281 93.6109 167.124 93.7208 167.011 93.8701C167.011 93.8701 166.442 92.796 165.973 93.6638Z" fill="#263238"/>
</svg>
